<svg width="251" height="56" viewBox="0 0 251 56" fill="none" xmlns="http://www.w3.org/2000/svg">
<g clip-path="url(#clip0_544_3831)">
<path fill-rule="evenodd" clip-rule="evenodd" d="M25.0445 0C24.5807 0.371476 21.6125 3.52902 19.2936 7.52239C17.7167 10.3085 16.6964 12.9088 15.9543 15.6949C14.0065 14.3018 11.873 13.0945 9.36861 12.073C5.10179 10.3085 0.742222 9.65837 0.185681 9.65837C0.0929244 10.2156 -0.278103 14.5804 0.371195 19.131C0.649466 21.4527 1.20601 23.4959 1.94806 25.4461C3.61768 25.0746 5.38006 24.9818 7.14244 24.9818C14.0064 24.9818 20.3139 27.4892 25.0445 31.7612C29.8679 27.5821 36.0826 24.9818 42.9466 24.9818C44.709 24.9818 46.4713 25.1675 48.141 25.4461C48.883 23.4959 49.3468 21.4527 49.7178 19.131C50.3671 14.5804 49.9961 10.2156 49.8106 9.65837C49.254 9.65837 44.8945 10.3085 40.6277 12.073C38.1232 13.0945 35.9898 14.3018 34.0419 15.6949C33.3926 13.0017 32.3723 10.3085 30.7027 7.52239C28.4765 3.52902 25.5083 0.371476 25.0445 0Z" fill="#ED7B00"/>
<path fill-rule="evenodd" clip-rule="evenodd" d="M2.41211 28.6037C2.87589 37.2406 8.34855 44.6701 16.0474 47.9205C16.8822 42.5341 19.2939 37.7049 22.8186 33.8973C18.5518 30.2754 13.0791 28.1394 7.14271 28.1394C5.56584 28.1394 3.98898 28.3251 2.41211 28.6037Z" fill="#80B925"/>
<path fill-rule="evenodd" clip-rule="evenodd" d="M18.459 55.2572L19.9431 56.0001C20.7779 53.8641 21.7982 51.7281 22.9113 49.685C23.6534 49.7779 24.3027 49.7779 25.0447 49.7779C37.1959 49.7779 47.1208 40.3981 47.6774 28.6037C46.1933 28.3251 44.6164 28.1394 42.9468 28.1394C30.7029 28.1394 20.5924 37.2406 19.0155 49.0349H19.1083C23.8389 42.1626 30.3319 36.962 37.7524 34.1759C37.9379 34.083 38.0307 34.083 38.2162 33.9901C30.8884 38.2621 25.694 43.5557 21.7055 49.4993C20.5924 51.3567 19.4793 53.3069 18.459 55.2572Z" fill="#80B925"/>
<path fill-rule="evenodd" clip-rule="evenodd" d="M163.623 24.6102H153.142V16.7164H163.067C167.426 16.7164 168.632 18.388 168.632 20.7097C168.725 23.3101 166.777 24.6102 163.623 24.6102ZM178.928 40.5837L169.838 30.6467C174.383 28.8822 178 26.0033 178 20.7097C178 14.0232 173.177 10.4941 165.942 10.4941H142.289V10.6799C143.031 10.7727 143.866 12.9087 143.866 15.6019V37.9834C143.866 40.6766 147.298 42.9054 149.431 42.9054H154.997V42.7197C153.976 42.6268 153.049 41.6053 153.049 39.8407V30.8325H160.098C161.397 32.4112 167.704 40.3051 168.447 41.1409C168.447 41.1409 169.931 42.9983 173.363 42.9983H181.989V42.7197C181.154 42.7197 179.948 41.5124 178.928 40.5837Z" fill="#ED7B00"/>
<path fill-rule="evenodd" clip-rule="evenodd" d="M203.601 10.4941V10.6799C204.065 10.7727 204.807 12.8159 204.807 15.6019V31.0182C204.807 34.7329 201.746 36.2188 197.479 36.2188C193.212 36.2188 190.151 34.7329 190.151 31.0182V15.6019C190.151 12.8159 190.986 10.7727 191.357 10.6799V10.4941H178.186V10.6799C179.391 10.7727 180.319 12.3515 180.319 15.6019V29.2537C180.319 37.0547 184.586 43.6484 197.479 43.6484C210.372 43.6484 214.639 37.0547 214.639 29.2537V15.6019C214.639 12.3515 215.567 10.7727 216.772 10.6799V10.4941H203.601Z" fill="#ED7B00"/>
<path fill-rule="evenodd" clip-rule="evenodd" d="M97.8585 10.4941V10.6799C98.1368 10.6799 98.7861 11.7014 98.5078 12.723C98.3223 13.4659 97.1165 15.6948 96.6527 16.995L93.2207 24.2388L88.0263 35.1044L82.8319 24.2388L79.3999 16.995C78.8434 15.6948 77.7303 13.4659 77.5448 12.723C77.2665 11.7014 77.9158 10.6799 78.1941 10.6799V10.4941H65.9502V10.6799C66.6923 10.6799 67.156 11.5157 67.4343 12.0729C71.0518 19.781 80.4203 39.7479 80.6985 40.5837C81.0696 41.6981 80.7913 42.7197 80.0492 42.7197V42.9054H88.0263H96.0034V42.7197C95.2614 42.6268 94.9831 41.6981 95.3541 40.5837C95.6324 39.7479 105.001 19.8739 108.618 12.0729C108.897 11.5157 109.36 10.6799 110.102 10.6799V10.4941H97.8585Z" fill="#ED7B00"/>
<path fill-rule="evenodd" clip-rule="evenodd" d="M251 32.6898C250.536 19.8739 226.605 25.2603 226.512 19.9668C226.419 16.7164 233.005 16.7164 234.86 16.7164C239.683 16.7164 243.95 17.7379 246.176 20.524L249.979 11.8872L249.701 11.7943C249.33 11.8872 248.866 12.0729 247.846 11.98C246.269 11.8872 240.147 10.0298 233.098 10.0298C221.039 10.0298 216.958 16.4377 217.051 20.9883C217.422 33.4328 241.353 27.7678 241.539 33.5256C241.631 36.4046 236.808 36.6832 234.953 36.6832C230.037 36.6832 223.173 35.2902 220.761 33.7114C220.668 33.7114 220.668 33.6185 220.576 33.6185C220.483 33.5256 220.483 33.5256 220.39 33.4328C219.648 32.8756 219.184 32.3183 219.184 32.3183L216.865 40.6766L217.144 40.7694C217.7 40.4908 218.349 40.4908 219.184 40.5837C219.741 40.6766 228.089 43.2769 235.231 43.2769C246.455 43.4626 251.185 38.4477 251 32.6898Z" fill="#ED7B00"/>
<path fill-rule="evenodd" clip-rule="evenodd" d="M121.233 29.1609L115.946 29.068L121.141 18.2024L126.335 29.068L121.233 29.1609ZM143.773 42.7198C143.217 42.7198 142.104 41.9768 141.361 40.4909C137.651 32.5971 129.489 15.0448 128.747 13.1874C128.005 11.6087 128.468 10.68 129.21 10.5871V10.4014H113.163V10.5871C113.905 10.68 114.369 11.6087 113.627 13.1874C112.792 15.0448 104.63 32.5971 101.012 40.4909C100.363 41.9768 99.2499 42.7198 98.6006 42.7198V42.9055H109.453C110.381 40.7695 112.05 37.2405 112.514 36.3118H112.7H121.141H121.233H129.674H129.86C130.323 37.2405 131.993 40.7695 132.921 42.9055H143.773V42.7198Z" fill="#ED7B00"/>
</g>
<defs>
<clipPath id="clip0_544_3831">
<rect width="251" height="56" fill="white"/>
</clipPath>
</defs>
</svg>
