<svg width="214" height="56" viewBox="0 0 214 56" fill="none" xmlns="http://www.w3.org/2000/svg">
<g clip-path="url(#clip0_544_3869)">
<path d="M201.721 56C198.446 56 195.369 54.7799 193.044 52.5588C190.719 50.3375 189.442 47.3968 189.442 44.2683V0H197.629V44.2995C197.629 45.3318 198.053 46.333 198.839 47.0838C199.625 47.8034 200.641 48.21 201.721 48.21C203.98 48.21 205.813 46.4581 205.813 44.2995V0H214V44.2995C214 50.744 208.501 56 201.721 56Z" fill="#371F5E"/>
<path d="M178.825 3.43941C176.499 1.21943 173.422 0 170.148 0C163.37 0 157.869 5.25292 157.869 11.7253V32.5495V40.3662V56H166.055V40.3662H174.241V56H182.427V40.3662V32.5495V11.7253C182.427 8.59854 181.15 5.65941 178.825 3.43941ZM166.055 32.5495V11.7253C166.055 9.56783 167.889 7.81685 170.148 7.81685C171.228 7.81685 172.276 8.22334 173.029 8.97375C173.815 9.72416 174.241 10.6934 174.241 11.7253V32.5495H166.055Z" fill="#371F5E"/>
<path d="M147.251 3.35016C145.941 2.12074 144.369 1.19868 142.667 0.645444C141.357 0.215148 139.982 0 138.574 0C137.133 0 134.481 0 134.481 0H126.295V15.7058V40.2941V56H134.481C134.481 56 137.133 56 138.574 56C139.982 56 141.357 55.7848 142.667 55.3546C144.369 54.8013 145.941 53.8792 147.251 52.6498C149.575 50.4675 150.852 47.5783 150.852 44.5048V40.3249V15.7365V11.495C150.852 8.42149 149.575 5.53236 147.251 3.35016ZM142.667 40.2635V44.3203C142.667 45.3962 142.241 46.472 141.422 47.2096C139.654 48.8078 137.853 48.2853 134.481 48.2853V40.2635V15.675V7.65312C137.853 7.65312 139.654 7.13062 141.422 8.72886C142.241 9.46652 142.667 10.5422 142.667 11.618V15.675V40.2635Z" fill="#371F5E"/>
<path d="M107 56C103.726 56 100.648 54.7799 98.3235 52.5588C95.9987 50.3375 94.7217 47.3968 94.7217 44.2683V0H102.908V44.2995C102.908 45.3318 103.333 46.333 104.119 47.0838C104.905 47.8034 105.92 48.21 107 48.21C109.26 48.21 111.093 46.4581 111.093 44.2995V0H119.279V44.2995C119.279 50.744 113.745 56 107 56Z" fill="#371F5E"/>
<path d="M84.103 3.43941C81.7784 1.21943 78.7003 0 75.4261 0C68.6483 0 63.1475 5.25292 63.1475 11.7253V32.5495V40.3662V56H71.3333V40.3662H79.519V56H87.7048V40.3662V32.5495V11.7253C87.7048 8.59854 86.4279 5.65941 84.103 3.43941ZM71.3333 32.5495V11.7253C71.3333 9.56783 73.1669 7.81685 75.4261 7.81685C76.5067 7.81685 77.5546 8.22334 78.3074 8.97375C79.0934 9.72416 79.519 10.6934 79.519 11.7253V32.5495H71.3333Z" fill="#371F5E"/>
<path d="M56.1311 56H48.1125V11.7318C48.1125 10.6994 47.6953 9.69834 46.9256 8.97878C46.1559 8.22794 45.1617 7.82122 44.1029 7.82122C41.89 7.82122 40.0938 9.57318 40.0938 11.7318V42.6725C40.0938 49.1486 34.705 54.4044 28.0656 54.4044C24.8582 54.4044 21.8431 53.1842 19.5657 50.9632C17.2884 48.7419 16.0375 45.8012 16.0375 42.6725V11.7318C16.0375 10.6994 15.6205 9.69834 14.8507 8.97878C14.0809 8.22794 13.0866 7.82122 12.0281 7.82122C9.81495 7.82122 8.01874 9.57318 8.01874 11.7318V56H0V11.7318C0 5.25586 5.38859 0 12.0281 0C15.2356 0 18.2507 1.22011 20.528 3.44134C22.8054 5.66258 24.0562 8.60337 24.0562 11.7318V42.6725C24.0562 43.7052 24.4732 44.7062 25.2431 45.4258C26.0128 46.1454 27.0072 46.5832 28.0656 46.5832C30.2789 46.5832 32.0751 44.8313 32.0751 42.6725V11.7318C32.0751 5.25586 37.4635 0 44.1029 0C47.3107 0 50.3256 1.22011 52.603 3.44134C54.8803 5.66258 56.1311 8.60337 56.1311 11.7318V56Z" fill="#371F5E"/>
</g>
<defs>
<clipPath id="clip0_544_3869">
<rect width="214" height="56" fill="white"/>
</clipPath>
</defs>
</svg>
