<svg width="255" height="56" viewBox="0 0 255 56" fill="none" xmlns="http://www.w3.org/2000/svg">
<path d="M28.2306 7.61065V3.59963C28.2306 1.59412 26.5867 0 24.5832 0C22.5797 0 20.9871 1.64555 20.9871 3.59963V7.55923C9.27436 9.30762 0.23291 19.3866 0.23291 31.5739C0.23291 44.944 11.1237 55.8457 24.4804 55.8457C37.8371 55.8457 48.7279 44.944 48.7279 31.5739C48.6766 19.4894 39.7892 9.46189 28.2306 7.61065ZM24.4804 51.4233C13.5382 51.4233 4.65089 42.5271 4.65089 31.5739C4.65089 21.8549 11.6888 13.73 20.9871 12.0845V16.404C20.9871 17.5868 21.5522 18.6667 22.4256 19.3352V22.9862H14.2574C13.3327 22.9862 12.4594 23.449 11.9457 24.2718C11.4833 25.0946 11.432 26.0716 11.8943 26.8944L22.2201 46.5895C22.6824 47.4637 23.6071 48.0294 24.5832 48.0294C25.6106 48.0294 26.4839 47.4637 26.9463 46.5895L37.272 26.8944C37.683 26.0716 37.683 25.0432 37.1693 24.2718C36.7069 23.5005 35.8336 22.9862 34.9089 22.9862H26.7408V19.3352C27.6655 18.6667 28.2306 17.5868 28.2306 16.404V12.0845C37.3748 13.8843 44.2586 21.9578 44.2586 31.5739C44.2586 42.5271 35.3713 51.4233 24.4804 51.4233ZM171.712 42.9385H163.75V33.3223H170.531V24.8889H163.75V16.6097H170.942V7.76492H152.91V51.7833H171.712V42.9385ZM89.7227 16.5583H93.1132V51.7319H103.901V7.76492H78.9346V51.7319H89.7227V16.5583ZM75.3386 42.9899H67.3246V33.3223H74.157V24.8889H67.3246V16.5069H74.6707V7.76492H56.3824V51.7319H75.3386V42.9899ZM186.096 33.3737H189.435V51.7833H200.275V7.81635H189.435V23.6033H186.096V7.81635H175.308V51.7833H186.096V33.3737ZM210.241 51.7833H221.029V16.6097H227.502V7.81635H203.82V16.6097H210.241V51.7833ZM118.285 7.76492H107.497V51.7319H118.285V7.76492ZM149.365 42.9385H147.054V7.76492H136.163V42.9385H132.772V7.76492H121.881V51.6804H141.814V56H149.365V42.9385ZM254.01 13.9871C253.753 12.6501 253.188 11.5702 252.417 10.6446C251.595 9.71901 250.414 8.99908 248.821 8.53627C247.229 8.02204 244.968 7.81635 242.04 7.81635H231.098V51.7833H241.886V34.0422H244.814C247.177 34.0422 249.13 33.6823 250.568 33.0138C252.058 32.3453 253.034 31.3168 253.599 30.0312C254.164 28.7456 254.421 26.6887 254.421 23.9118V20.0551C254.421 17.3297 254.267 15.2727 254.01 13.9871ZM242.965 25.6602C239.831 25.6602 237.263 23.0891 237.263 19.9522C237.263 16.8154 239.831 14.2443 242.965 14.2443C246.099 14.2443 248.667 16.8154 248.667 19.9522C248.667 23.1405 246.099 25.6602 242.965 25.6602Z" fill="#1060C1"/>
</svg>
