<svg width="336" height="56" viewBox="0 0 336 56" fill="none" xmlns="http://www.w3.org/2000/svg">
<g clip-path="url(#clip0_544_3850)">
<path d="M57.4357 28.1235C57.3724 43.5897 44.4368 56.0615 28.5915 55.9997C12.7461 55.938 -0.0630216 43.3427 0.000233272 27.8765C0.0634882 12.4103 12.9991 -0.0615132 28.8445 0.000228251C44.7215 0.0619697 57.499 12.6572 57.4357 28.1235Z" fill="#221F1F"/>
<path d="M39.0606 41.8609C36.0243 47.1707 32.2607 51.5234 28.0543 51.4309C25.4291 51.369 22.9305 50.4121 20.6535 48.8994C21.3809 47.6029 25.9669 41.12 39.0606 41.8609ZM56.6771 28.1234C56.6138 43.1574 44.0262 55.3205 28.5919 55.228C13.1577 55.1662 0.759766 42.9105 0.759766 27.8764C0.759766 18.1212 5.7569 11.1136 10.501 7.34738C16.3205 2.74764 20.2739 6.2669 21.6655 8.95266C21.5073 7.81044 21.033 4.53814 19.7362 2.19196C22.5827 1.23497 25.6506 0.710165 28.845 0.741035C44.2791 0.833648 56.7403 13.0585 56.6771 28.1234ZM27.2319 12.4411C31.2803 9.7553 38.2699 8.27349 41.9703 13.892C39.7248 1.04974 30.0151 8.42786 27.2319 12.4411ZM21.6022 24.5733C22.4562 23.6472 23.4367 22.7209 24.5753 21.8875C29.6356 18.0904 35.1705 17.1334 36.9733 19.7882C37.6691 20.807 37.7006 22.227 37.163 23.7707C38.9657 20.8687 39.535 18.183 38.428 16.7012C36.5621 14.2315 30.7742 15.9294 25.4924 20.4983C23.9426 21.764 22.6459 23.1841 21.6022 24.5733ZM12.7782 26.8577C15.34 27.3208 18.1232 24.1411 18.9772 19.6957C19.8311 15.2503 18.4711 11.2988 15.9093 10.8049C13.3475 10.3418 10.5643 13.5215 9.71034 17.967C8.85639 22.3814 10.2164 26.3637 12.7782 26.8577ZM48.3907 21.4861C23.8795 37.5082 6.95875 29.3891 6.95875 29.3891C6.70573 34.9459 16.4787 52.0173 28.1175 52.2335C39.7881 52.4495 48.3907 21.4861 48.3907 21.4861ZM10.4061 18.0595C11.1968 13.9846 13.6005 11.021 15.7829 11.4532C17.965 11.8545 19.1037 15.4972 18.3446 19.5722C17.554 23.6472 15.1502 26.6107 12.968 26.1785C10.754 25.7773 9.61544 22.1345 10.4061 18.0595ZM15.0554 21.5171C16.0358 21.7331 17.1112 20.56 17.4907 18.9239C17.8703 17.2878 17.3642 15.7751 16.3837 15.5899C15.7196 15.4355 15.0238 15.9294 14.5177 16.763C14.9605 16.979 15.1818 17.5348 14.9605 17.9978C14.7708 18.4299 14.328 18.6461 13.8852 18.5534C13.6954 20.0044 14.1698 21.3009 15.0554 21.5171Z" fill="#05BC52"/>
<path fill-rule="evenodd" clip-rule="evenodd" d="M118.828 28.1543C118.828 18.1521 126.49 13.429 138.725 13.429C151.022 13.429 158.653 18.183 158.653 28.1543C158.653 38.1255 151.022 42.9106 138.725 42.9106C126.46 42.9106 118.828 38.1564 118.828 28.1543ZM128.869 28.1235C128.869 33.4332 132.608 35.5324 138.725 35.5324C144.812 35.5324 148.613 33.464 148.613 28.1235C148.613 22.7827 144.812 20.7453 138.725 20.7453C132.608 20.7453 128.869 22.7827 128.869 28.1235Z" fill="#122538"/>
<path d="M191.498 19.1092V14.1082H160.477V21.3011H177.162L160.23 37.1995V42.1698H191.59V34.946H174.751L191.498 19.1092Z" fill="#122538"/>
<path d="M221.282 30.9328H204.813V35.2238H224.773V42.1698H195.576V14.1082H224.093V21.1776H204.813V25.3143H221.282V30.9328Z" fill="#122538"/>
<path d="M227.151 21.3011H238.799V42.1698H248.378V21.3011H260.026V14.1082H227.151V21.3011Z" fill="#122538"/>
<path fill-rule="evenodd" clip-rule="evenodd" d="M322.931 14.1082H310.448L297.349 42.1698H307.791L310.047 36.6748H323.271L325.526 42.1698H336L322.931 14.1082ZM312.364 31.0563L316.69 20.5602L320.985 31.0563H312.364Z" fill="#122538"/>
<path fill-rule="evenodd" clip-rule="evenodd" d="M115.985 24.2647C115.985 18.3376 112.185 14.1082 103.132 14.1082H83.5439V42.1698H92.9983V34.236H99.0849L105.882 42.1698H117.685L109.775 33.0629C113.73 31.334 115.985 27.6914 115.985 24.2647ZM92.9983 20.7146H102.298C105.172 20.7146 106.315 22.2581 106.315 24.2338C106.315 25.5613 105.511 28.0001 102.144 28.0001H92.9983V20.7146Z" fill="#122538"/>
<path d="M272.878 24.3573L284.495 14.1082H296.793L283.29 25.5613L296.329 42.1698H284.526L276.431 31.3958L272.878 34.4212V42.1698H263.424V14.1082H272.878V24.3573Z" fill="#122538"/>
</g>
<defs>
<clipPath id="clip0_544_3850">
<rect width="336" height="56" fill="white"/>
</clipPath>
</defs>
</svg>
