<svg width="149" height="56" viewBox="0 0 149 56" fill="none" xmlns="http://www.w3.org/2000/svg">
<g clip-path="url(#clip0_544_3885)">
<path d="M38.0336 0.395264H51.7261V53.8233H38.0336V46.611H13.5385L27.2824 33.541H38.0336V19.3486L0 55.0619V36.2118L38.0336 0.395264Z" fill="#EF3E33"/>
<path d="M38.0336 0.395264H51.7261V53.8233H38.0336V46.611H13.5385L27.2824 33.541H38.0336V19.3486L0 55.0619V36.2118L38.0336 0.395264Z" fill="url(#paint0_linear_544_3885)"/>
<path d="M66.7031 15.0004H55.4639V1.00146H104.557L89.7981 15.0004H81.4489V54.4295H66.7031V15.0004Z" fill="#EF3E33"/>
<path d="M66.7031 15.0004H55.4639V1.00146H104.557L89.7981 15.0004H81.4489V54.4295H66.7031V15.0004Z" fill="url(#paint1_linear_544_3885)"/>
<path d="M135.41 13.9036H107.986V41.5789H122.835C123.478 41.6004 124.113 41.4297 124.659 41.0887C125.158 40.7764 125.558 40.3292 125.815 39.7984C126.095 39.1925 126.236 38.5311 126.226 37.8631C126.249 36.9217 125.929 36.0043 125.327 35.2827C125.011 34.9388 124.625 34.6683 124.195 34.49C123.764 34.3117 123.3 34.23 122.835 34.2504H110.941V21.3095H125.52C127.441 21.2893 129.343 21.69 131.094 22.4836C132.836 23.2505 134.394 24.3808 135.667 25.7995C137.008 27.3009 138.039 29.0552 138.699 30.9604C139.469 33.1244 139.848 35.4099 139.817 37.7083C139.81 39.8563 139.432 41.9869 138.699 44.0045C137.986 45.9441 136.948 47.7464 135.629 49.3331C134.381 50.868 132.839 52.1359 131.094 53.0619C129.399 53.9588 127.513 54.4323 125.597 54.4424H94.3838V13.9036L107.986 1.00146H149L135.41 13.9036Z" fill="#EF3E33"/>
<path d="M135.41 13.9036H107.986V41.5789H122.835C123.478 41.6004 124.113 41.4297 124.659 41.0887C125.158 40.7764 125.558 40.3292 125.815 39.7984C126.095 39.1925 126.236 38.5311 126.226 37.8631C126.249 36.9217 125.929 36.0043 125.327 35.2827C125.011 34.9388 124.625 34.6683 124.195 34.49C123.764 34.3117 123.3 34.23 122.835 34.2504H110.941V21.3095H125.52C127.441 21.2893 129.343 21.69 131.094 22.4836C132.836 23.2505 134.394 24.3808 135.667 25.7995C137.008 27.3009 138.039 29.0552 138.699 30.9604C139.469 33.1244 139.848 35.4099 139.817 37.7083C139.81 39.8563 139.432 41.9869 138.699 44.0045C137.986 45.9441 136.948 47.7464 135.629 49.3331C134.381 50.868 132.839 52.1359 131.094 53.0619C129.399 53.9588 127.513 54.4323 125.597 54.4424H94.3838V13.9036L107.986 1.00146H149L135.41 13.9036Z" fill="url(#paint2_linear_544_3885)"/>
</g>
<defs>
<linearGradient id="paint0_linear_544_3885" x1="74.5" y1="0.395264" x2="74.5" y2="55.0619" gradientUnits="userSpaceOnUse">
<stop stop-color="#EF3E33"/>
<stop offset="1" stop-color="#A5251D"/>
</linearGradient>
<linearGradient id="paint1_linear_544_3885" x1="74.4999" y1="0.395061" x2="74.4999" y2="55.0617" gradientUnits="userSpaceOnUse">
<stop stop-color="#EF3E33"/>
<stop offset="1" stop-color="#A5251D"/>
</linearGradient>
<linearGradient id="paint2_linear_544_3885" x1="74.5" y1="0.395061" x2="74.5" y2="55.0617" gradientUnits="userSpaceOnUse">
<stop stop-color="#EF3E33"/>
<stop offset="1" stop-color="#A5251D"/>
</linearGradient>
<clipPath id="clip0_544_3885">
<rect width="149" height="56" fill="white"/>
</clipPath>
</defs>
</svg>
