<svg width="248" height="74" viewBox="0 0 248 74" fill="none" xmlns="http://www.w3.org/2000/svg">
<g clip-path="url(#clip0_574_711)">
<path d="M169.88 0H22.94C10.168 0 0 10.3575 0 23.2108V74H146.94C159.588 74 169.88 63.7673 169.88 50.914V0Z" fill="#79B928"/>
<path d="M52.2044 22.9614H52.0804C50.0964 22.9614 48.2364 23.4606 46.5004 24.3341C45.8804 23.4606 44.8884 22.9614 43.6484 22.9614C42.4084 22.9614 41.4164 23.4606 40.7964 24.3341C39.0604 23.4606 37.2004 22.9614 35.2164 22.9614H34.9684C31.6204 22.9614 28.7684 24.0845 26.4124 26.3307C24.0564 28.5769 22.9404 31.3223 22.9404 34.442V39.3088C22.9404 42.5533 24.0564 45.1739 26.4124 47.4201C28.7684 49.6663 31.6204 50.7894 34.9684 50.7894H35.2164C36.9524 50.7894 38.5644 50.4151 40.1764 49.7911V52.1621C40.1764 53.0356 40.5484 53.9091 41.1684 54.6579C41.7884 55.2818 42.6564 55.6562 43.6484 55.6562C44.5164 55.6562 45.3844 55.4066 46.0044 54.7827C46.6244 54.1587 47.1204 53.5348 47.1204 52.786C47.1204 52.5365 47.1204 52.4117 47.1204 52.1621V49.9159C48.6084 50.5398 50.3444 50.9142 52.0804 50.9142H52.3284C55.6764 50.9142 58.5284 49.7911 60.8844 47.5449C63.2404 45.2987 64.3564 42.5533 64.3564 39.4336V34.5668C64.3564 31.3223 63.2404 28.7017 60.8844 26.4555C58.4044 24.0845 55.5524 22.9614 52.2044 22.9614ZM52.2044 44.0508H52.0804C50.7164 44.0508 49.6004 43.5516 48.6084 42.6781C47.6164 41.8046 47.1204 40.6815 47.1204 39.3088V34.442C47.1204 33.0694 47.6164 32.071 48.6084 31.0727C49.6004 30.0744 50.7164 29.7 52.0804 29.7H52.3284C53.6924 29.7 54.8084 30.1992 55.8004 31.0727C56.7924 31.9462 57.2884 33.0694 57.2884 34.442V39.3088C57.2884 40.6815 56.7924 41.6798 55.8004 42.6781C54.8084 43.5516 53.6924 44.0508 52.2044 44.0508ZM35.0924 44.0508H34.8444C33.4804 44.0508 32.3644 43.5516 31.3724 42.6781C30.3804 41.8046 29.8844 40.6815 29.8844 39.3088V34.442C29.8844 33.0694 30.3804 32.071 31.3724 31.0727C32.3644 30.1992 33.4804 29.7 34.8444 29.7H35.0924C36.4564 29.7 37.5724 30.1992 38.5644 31.0727C39.5564 31.9462 40.0524 33.0694 40.0524 34.442V39.3088C40.0524 40.6815 39.5564 41.6798 38.5644 42.6781C37.5724 43.5516 36.4564 44.0508 35.0924 44.0508Z" fill="white"/>
<path d="M79.3608 22.9614H79.1128C75.6408 22.9614 72.6648 24.0845 70.1848 26.3307C67.7048 28.5769 66.4648 31.3223 66.4648 34.442V39.3088C66.4648 42.5533 67.7048 45.1739 70.1848 47.4201C72.6648 49.6663 75.6408 50.7894 79.1128 50.7894H79.3608C82.8328 50.7894 85.8088 49.6663 88.2888 47.4201C90.7688 45.1739 92.0088 42.4285 92.0088 39.3088V34.442C92.0088 31.1975 90.7688 28.5769 88.2888 26.3307C85.8088 24.0845 82.7088 22.9614 79.3608 22.9614ZM79.3608 44.0508H79.1128C77.6248 44.0508 76.5088 43.5516 75.5168 42.6781C74.5248 41.8046 74.0288 40.6815 74.0288 39.3088V34.442C74.0288 33.0694 74.5248 32.071 75.5168 31.0727C76.5088 30.1992 77.7488 29.7 79.1128 29.7H79.3608C80.8488 29.7 81.9648 30.1992 82.9568 31.0727C83.9488 31.9462 84.4448 33.0694 84.4448 34.442V39.3088C84.4448 40.5567 83.9488 41.6798 82.9568 42.6781C81.9648 43.5516 80.7248 44.0508 79.3608 44.0508Z" fill="white"/>
<path d="M106.888 22.9614H106.64C104.532 22.9614 102.548 23.4606 100.812 24.3341C100.192 23.4606 99.0765 22.9614 97.8365 22.9614C96.8445 22.9614 95.8525 23.3358 95.2325 23.9597C94.4885 24.5837 94.1165 25.4572 94.1165 26.3307V52.1621C94.1165 53.0356 94.4885 53.9091 95.2325 54.6579C95.9765 55.2818 96.8445 55.6562 97.8365 55.6562C98.8285 55.6562 99.6965 55.4066 100.44 54.6579C101.184 54.0339 101.556 53.1604 101.556 52.2869V49.9159C103.168 50.5398 104.904 50.9142 106.64 50.9142H106.888C110.36 50.9142 113.336 49.7911 115.816 47.5449C118.296 45.2987 119.536 42.5533 119.536 39.4336V34.5668C119.536 31.3223 118.296 28.7017 115.816 26.4555C113.336 24.0845 110.236 22.9614 106.888 22.9614ZM106.888 44.0508H106.64C105.152 44.0508 104.036 43.5516 103.044 42.6781C102.052 41.8046 101.556 40.6815 101.556 39.3088V34.442C101.556 33.0694 102.052 32.071 103.044 31.0727C104.036 30.1992 105.276 29.7 106.64 29.7H106.888C108.376 29.7 109.492 30.1992 110.484 31.0727C111.476 31.9462 111.972 33.0694 111.972 34.442V39.3088C111.972 40.5567 111.476 41.6798 110.484 42.6781C109.492 43.5516 108.252 44.0508 106.888 44.0508Z" fill="white"/>
<path d="M145.948 23.9597C145.204 23.3358 144.336 22.9614 143.344 22.9614C141.98 22.9614 140.988 23.4606 140.368 24.3341C138.632 23.4606 136.648 22.9614 134.54 22.9614H134.292C130.82 22.9614 127.844 24.0845 125.364 26.3307C122.884 28.5769 121.644 31.3223 121.644 34.442V39.3088C121.644 42.5533 122.884 45.1739 125.364 47.4201C127.844 49.6663 130.82 50.7894 134.292 50.7894H134.54C136.648 50.7894 138.632 50.2903 140.368 49.4167C140.988 50.2903 142.104 50.7894 143.344 50.7894C144.336 50.7894 145.328 50.4151 145.948 49.7911C146.692 49.1672 147.064 48.2936 147.064 47.2953V26.4555C147.064 25.4572 146.568 24.5837 145.948 23.9597ZM134.416 44.0508H134.168C132.68 44.0508 131.564 43.5516 130.572 42.6781C129.58 41.8046 129.084 40.6815 129.084 39.3088V34.442C129.084 33.0694 129.58 32.071 130.572 31.0727C131.564 30.1992 132.804 29.7 134.168 29.7H134.416C135.904 29.7 137.02 30.1992 138.012 31.0727C139.004 31.9462 139.5 33.0694 139.5 34.442V39.3088C139.5 40.5567 139.004 41.6798 138.012 42.6781C137.02 43.5516 135.904 44.0508 134.416 44.0508Z" fill="white"/>
<path d="M224.936 0H174.468V50.7892C174.468 63.5177 184.76 74 197.408 74H224.812C237.46 74 247.876 63.5177 247.876 50.7892V23.2108C248 10.4823 237.584 0 224.936 0Z" fill="#E72F2A"/>
<path d="M228.16 30.0741H223.076H220.224L215.016 21.3388C214.644 20.7149 213.776 20.4653 213.032 20.8397L212.412 21.214C211.792 21.5884 211.544 22.4619 211.916 23.2107L214.272 27.0791L216.008 30.0741L218.488 34.1921C218.24 33.9425 217.868 33.693 217.62 33.4434L214.892 30.0741H207.328L204.6 33.4434C204.352 33.693 204.104 34.0673 203.732 34.1921L206.212 30.0741L207.948 27.0791L210.304 23.2107C210.676 22.5867 210.552 21.5884 209.808 21.214L209.188 20.8397C208.568 20.4653 207.576 20.5901 207.204 21.3388L201.996 30.0741H199.144H194.06C193.44 30.0741 192.82 30.698 192.82 31.322L192.944 33.693C192.944 34.3169 193.564 34.6913 194.184 34.6913H194.804L196.912 48.2933C197.532 50.9139 199.268 50.9139 201.748 50.9139H221.34C223.696 50.9139 224.812 50.6643 225.556 48.1685L227.664 34.8161H228.284C228.904 34.8161 229.524 34.3169 229.524 33.8178V31.1972C229.524 30.5732 228.78 30.0741 228.16 30.0741ZM202.12 32.0707C202.368 31.6963 202.864 31.5716 203.236 31.8211C203.608 32.0707 203.732 32.5699 203.484 32.9442C203.236 33.3186 202.74 33.4434 202.368 33.1938C202.12 32.8194 201.872 32.4451 202.12 32.0707ZM202.988 47.295H202.368C201.748 47.295 201.252 46.9206 201.252 46.5463L199.64 37.3119C199.516 36.6879 200.012 35.9392 200.756 35.9392H201.376C202.12 35.9392 202.74 36.4383 202.864 37.0623L204.104 46.5463C203.98 47.0454 203.608 47.295 202.988 47.295ZM208.816 47.295H208.196C207.576 47.295 207.08 46.9206 207.08 46.5463L206.336 37.0623C206.336 36.4383 206.832 35.9392 207.452 35.9392H208.072C208.816 35.9392 209.436 36.4383 209.436 37.0623L209.808 46.5463C209.932 47.0454 209.436 47.295 208.816 47.295ZM215.76 46.5463C215.76 47.0454 215.14 47.295 214.644 47.295H214.024C213.404 47.295 212.908 46.9206 212.908 46.5463L213.032 37.0623C213.032 36.4383 213.652 35.9392 214.396 35.9392H215.016C215.76 35.9392 216.256 36.4383 216.256 37.0623L215.76 46.5463ZM220.224 32.0707C220.472 32.4451 220.348 32.9442 219.976 33.1938C219.604 33.4434 219.108 33.1938 218.86 32.9442C218.612 32.5699 218.736 32.0707 219.108 31.8211C219.48 31.4468 219.976 31.5716 220.224 32.0707ZM222.952 37.3119L221.588 46.5463C221.464 47.0454 221.092 47.295 220.472 47.295H219.728C219.108 47.295 218.612 46.9206 218.736 46.5463L219.728 37.0623C219.852 36.4383 220.472 35.9392 221.216 35.9392H221.836C222.58 35.9392 223.076 36.6879 222.952 37.3119Z" fill="white"/>
</g>
<defs>
<clipPath id="clip0_574_711">
<rect width="248" height="74" fill="white"/>
</clipPath>
</defs>
</svg>
