<svg width="240" height="139" viewBox="0 0 240 139" fill="none" xmlns="http://www.w3.org/2000/svg">
<path d="M28.84 8.74179C32.5773 8.74179 36.106 9.38546 39.4251 10.6704C42.7441 11.9563 44.5978 13.5859 44.9869 15.5595C45.1664 16.4563 45.256 17.6832 45.256 19.2373C45.256 21.4505 45.106 23.1841 44.8073 24.44C44.7178 24.7096 44.5678 24.8441 44.3592 24.8441C44.2987 24.8441 44.2166 24.8291 44.1121 24.7991C44.0071 24.7696 43.9401 24.7541 43.9105 24.7541C41.7573 20.5382 39.3275 17.0995 36.6216 14.4382C33.9153 11.7773 31.2019 10.4313 28.4809 10.4013H28.3914C25.5209 10.4013 23.0241 11.7402 20.9009 14.4157C18.7777 17.092 17.1932 20.5682 16.1468 24.8441C15.0995 29.1205 14.5468 33.8896 14.4873 39.1518V39.69C14.4873 44.6841 15.0625 49.3412 16.2139 53.6616C17.3648 57.983 18.9123 61.4067 20.8559 63.933C22.7996 66.4603 24.9078 67.7228 27.1805 67.7228C28.6755 67.7228 29.9834 67.5142 31.1053 67.0951C32.2262 66.6764 33.146 66.0337 33.8637 65.1664C34.581 64.2996 35.1712 63.3798 35.6353 62.408C36.0985 61.4367 36.4346 60.2403 36.6441 58.8198C36.8532 57.3998 36.9953 56.0835 37.0703 54.8725C37.1448 53.6616 37.1823 52.2196 37.1823 50.5441V44.5791C35.2091 44.0409 33.9982 43.4432 33.5496 42.785C33.34 42.4864 33.2355 42.1723 33.2355 41.8432V41.5291H50.8623V41.8432C50.8623 42.9796 49.6064 43.8914 47.0951 44.5791C47.0951 48.7055 46.9226 53.0189 46.5794 57.5189C46.2353 62.0199 45.6441 64.7478 44.8073 65.7046C43.701 66.9605 41.9069 67.9178 39.4251 68.5751C36.9428 69.2333 33.0405 69.5619 27.7187 69.5619C23.5923 69.5619 19.8316 68.9046 16.4384 67.5883C13.0443 66.2728 10.1289 64.3521 7.69205 61.8248C5.25477 59.2985 3.36363 56.106 2.01818 52.2487C0.672727 48.3914 0 44.0259 0 39.1518C0 29.165 2.41431 21.5995 7.24341 16.4564C12.072 11.3136 19.2709 8.74179 28.84 8.74179Z" fill="#C49A6C"/>
<path d="M105.554 52.2177L118.292 17.183L131.031 52.2177H105.554ZM74.9992 46.8861H68.6939V10.3324H74.9992C81.1574 10.3324 86.167 18.5312 86.167 28.6095C86.167 38.6873 81.1574 46.8861 74.9992 46.8861ZM149.672 68.6285C149.28 68.0528 148.305 67.5236 146.747 67.0398C146.55 66.5208 145.92 64.8617 145.918 64.8561L125.699 9.26638C125.585 8.95275 125.283 8.74179 124.948 8.74179H116.361C116.104 8.74179 115.862 8.86602 115.711 9.07417C115.558 9.29122 115.521 9.56312 115.61 9.80737L117.443 14.8479L99.2493 64.8866C98.9464 65.7079 98.5742 66.3478 98.1326 66.8513C98.1232 66.8597 98.111 66.863 98.1021 66.8715C97.7885 67.1841 97.3717 67.3557 96.9273 67.3557C96.4819 67.3557 96.0642 67.1846 95.7501 66.8743C95.6194 66.7393 95.5054 66.5803 95.4211 66.412C95.4173 66.405 95.4136 66.3975 95.4098 66.3905L89.7959 55.4412C89.7898 55.4295 89.7837 55.4178 89.7772 55.4065C88.0431 52.1784 84.7231 49.6089 80.5592 48.1683C90.3547 46.5073 97.8133 38.3694 97.8133 28.6104C97.8133 17.6555 88.4144 8.74273 76.8613 8.74273H72.6688V8.74179H55.042V9.05588C55.042 9.38498 55.1465 9.69908 55.3561 9.9977C55.8047 10.6559 57.0156 11.2536 58.9888 11.7918C58.9888 11.7918 58.8097 65.5002 58.8097 66.8344C56.2979 67.5217 55.042 68.4335 55.042 69.5703V69.8844H72.6688V69.5703C72.6688 69.2408 72.5648 68.9271 72.3552 68.6285C71.9066 67.9703 70.6957 67.3726 68.722 66.8344L68.693 48.4777H72.6909C74.3453 48.4777 75.8543 49.3745 76.536 50.7626C76.5411 50.7724 76.5467 50.7827 76.5524 50.7931L83.9481 65.2457C84.4076 66.2555 85.0573 67.1902 85.8674 67.998C87.6526 69.7766 90.0247 70.7559 92.5478 70.7559C92.6622 70.7559 92.7742 70.7433 92.8881 70.7395C92.9017 70.7405 92.912 70.748 92.9261 70.748C93.1868 70.748 99.3257 70.687 100.775 65.361L104.976 53.8079H131.609L135.822 65.3943C135.824 65.4013 135.827 65.4083 135.83 65.4154C135.997 65.8781 136.09 66.2737 136.13 66.6174C136.13 66.6886 136.127 66.7632 136.127 66.8344C133.615 67.5217 132.359 68.4335 132.359 69.5703V69.8844H149.986V69.5703C149.986 69.2408 149.882 68.9271 149.672 68.6285Z" fill="#C49A6C"/>
<path d="M150.384 8.6486C150.384 9.38461 150.522 9.92936 150.798 10.2819C151.074 10.6349 151.373 10.8266 151.695 10.8571C152.017 10.8881 152.316 11.0179 152.592 11.2481C152.868 11.4783 153.006 11.8388 153.006 12.3291V67.0216C150.913 67.6844 149.854 68.5325 149.854 69.5704V69.8845H167.481V69.5704C167.481 69.2409 167.376 68.9272 167.167 68.6286C166.766 68.0407 165.753 67.5016 164.137 67.0094L164.048 40.0258H174.031C174.031 40.0567 174.085 40.2635 174.193 40.6465C174.3 41.0304 174.392 41.3445 174.469 41.5897C174.545 41.8358 174.668 42.1579 174.837 42.5559C175.005 42.9553 175.182 43.2769 175.366 43.5221C175.55 43.7682 175.78 43.9824 176.056 44.1662C176.332 44.3505 176.623 44.4423 176.93 44.4423H177.252V33.9065H176.93C176.562 33.9065 176.217 34.0298 175.895 34.2746C175.573 34.5207 175.304 34.8657 175.089 35.3097C174.875 35.755 174.698 36.138 174.561 36.4601C174.423 36.7822 174.216 37.4343 173.939 38.4155H164.048V10.3508H185.809C185.809 10.3817 185.862 10.581 185.97 10.949C186.078 11.317 186.177 11.632 186.269 11.8922C186.361 12.1529 186.5 12.4754 186.683 12.8584C186.868 13.2424 187.051 13.564 187.236 13.8241C187.419 14.0853 187.657 14.3075 187.949 14.4917C188.24 14.6755 188.539 14.7674 188.846 14.7674H189.122V8.6486H150.384Z" fill="#C49A6C"/>
<path d="M191.877 8.6486C191.877 9.38461 192.014 9.92936 192.291 10.2819C192.567 10.6349 192.866 10.8266 193.188 10.8571C193.51 10.8881 193.809 11.0179 194.085 11.2481C194.361 11.4783 194.499 11.8388 194.499 12.3291V67.0216C192.406 67.6844 191.346 68.5325 191.346 69.5704V69.8845H208.974V69.5704C208.974 69.2409 208.869 68.9272 208.66 68.6286C208.259 68.0407 207.246 67.5016 205.63 67.0094L205.541 40.0258H215.524C215.524 40.0567 215.578 40.2635 215.686 40.6465C215.792 41.0304 215.885 41.3445 215.962 41.5897C216.038 41.8358 216.16 42.1579 216.33 42.5559C216.497 42.9553 216.675 43.2769 216.858 43.5221C217.043 43.7682 217.273 43.9824 217.549 44.1662C217.825 44.3505 218.116 44.4423 218.423 44.4423H218.745V33.9065H218.423C218.055 33.9065 217.71 34.0298 217.388 34.2746C217.066 34.5207 216.797 34.8657 216.582 35.3097C216.368 35.755 216.191 36.138 216.054 36.4601C215.916 36.7822 215.709 37.4343 215.432 38.4155H205.541V10.3508H227.302C227.302 10.3817 227.355 10.581 227.463 10.949C227.571 11.317 227.67 11.632 227.762 11.8922C227.854 12.1529 227.992 12.4754 228.177 12.8584C228.36 13.2424 228.544 13.564 228.728 13.8241C228.913 14.0853 229.15 14.3075 229.442 14.4917C229.733 14.6755 230.032 14.7674 230.339 14.7674H230.615V8.6486H191.877Z" fill="#C49A6C"/>
<path d="M67.9043 101.997C66.8828 102.23 65.8613 102.276 64.6542 102.322C62.8437 102.416 60.6614 102.23 60.3365 101.533C60.1973 100.79 60.4758 100.744 60.8006 100.605C61.5437 100.187 62.7044 99.9079 64.0972 99.9079C65.1651 99.9079 66.4187 100.094 67.7651 100.512C70.9689 100.001 75.1473 96.4261 75.1937 92.7583C75.2401 89.5081 72.3153 85.5617 65.9077 84.401C64.3293 84.1689 62.7044 84.0297 61.0327 84.0297C60.4293 84.0297 59.8724 84.0297 59.2686 84.0761C58.7117 92.5721 58.015 103.483 57.8758 112.676C59.1294 112.119 60.3829 111.701 61.5437 111.283C66.1402 109.658 71.4794 108.869 75.2401 108.312C74.0329 105.155 70.9689 102.926 67.9043 101.997ZM57.9222 114.487C58.015 116.344 58.2007 117.922 58.6184 118.944C58.6653 119.176 58.572 119.315 58.2935 119.315C57.783 119.269 57.3648 118.665 57.2256 118.294C56.9007 117.598 56.6686 116.483 56.5294 115.183C54.3007 116.344 52.2113 117.922 51.097 119.965C49.9831 123.169 55.8328 123.587 58.1078 123.633C60.4758 123.726 63.1685 123.354 65.6293 122.565C70.5507 120.894 76.2616 116.947 75.6578 109.798C70.3651 110.633 66.2795 111.33 62.5652 112.676C61.1724 113.187 59.5007 113.744 57.9222 114.487ZM56.3438 108.776C56.3438 100.79 56.9007 92.619 57.5509 84.2617C50.4008 84.9115 43.6684 89.044 40.6507 94.3367C39.722 96.008 39.2579 97.9118 39.2579 99.7687C39.2579 104.69 42.4612 109.472 48.7295 109.38C49.4257 109.38 50.2151 109.287 50.8649 109.101C51.2367 108.962 51.7008 109.24 51.2367 109.565C51.0041 109.704 49.6113 110.123 47.8008 110.123C45.0616 110.123 41.3005 109.194 38.933 105.201C38.0972 103.808 37.6331 101.858 37.6331 99.7687C37.6331 97.6333 38.0972 95.3118 39.2579 93.2688C42.2756 87.9296 49.24 83.6579 56.6686 82.8689L57.6901 82.7761C57.9222 80.3618 58.1543 78.3188 58.4327 77.0652C58.4791 76.8796 58.3863 76.7403 59.1294 76.8796C59.5935 76.926 60.0581 77.2973 60.0581 77.5293C59.8255 78.8293 59.5935 80.5939 59.4078 82.6833C61.7757 82.59 64.2829 82.7761 66.6508 83.2866C73.6152 84.6794 76.7721 88.7191 76.865 92.5262C76.9578 96.1472 74.1258 99.8615 69.6684 101.394C72.5937 102.648 75.2401 104.783 76.6329 108.126C78.4439 107.894 80.6721 107.755 82.3902 107.755C83.9223 107.755 85.083 107.847 85.3615 108.172C85.6863 108.497 85.3615 108.683 85.083 108.73C82.2046 108.962 79.5577 109.194 77.1903 109.565L77.097 109.612C77.1903 110.169 77.2367 110.726 77.2367 111.283C77.2367 117.226 72.3617 121.869 66.5579 123.865C64.2365 124.701 61.4973 125.119 58.8973 125.073C56.483 124.98 49.7042 123.865 49.7042 120.29C49.7042 119.873 49.797 119.454 49.9831 118.944C51.0505 116.576 53.6041 114.719 56.3902 113.372C56.3438 111.84 56.3438 110.308 56.3438 108.776Z" fill="#C49A6C"/>
<path d="M86.8695 104.597C86.8695 104.273 87.3336 104.273 87.7982 104.505C88.2159 104.737 88.4944 105.201 88.4944 105.48L88.448 107.29C89.6087 105.805 93.0445 103.112 95.5981 103.53C96.666 103.715 97.3158 104.69 96.9909 105.062C96.3411 105.805 95.6909 105.526 95.7373 105.154L95.7837 104.783C93.4622 104.737 89.6087 107.569 88.4944 110.772C88.3551 111.144 88.3551 111.423 88.1695 112.769C88.2159 113.372 86.6839 112.769 86.4982 112.072C86.3126 111.655 86.2193 110.448 86.8695 104.597Z" fill="#C49A6C"/>
<path d="M100.195 99.8617C100.287 99.7224 100.612 98.7937 100.705 98.5617L100.798 97.8655C100.798 97.5866 101.309 97.4938 101.773 97.6794C102.377 97.8191 102.748 98.1904 102.655 98.4225C102.655 98.6081 102.655 98.933 102.516 99.2119C102.423 99.444 102.051 100.465 101.912 100.698C101.773 100.883 101.216 100.883 100.798 100.651C100.241 100.465 99.9625 100.047 100.195 99.8617ZM98.8018 107.569C98.8018 106.13 99.0802 104.69 99.5907 103.901C99.6376 103.669 100.102 103.622 100.659 103.762C101.17 103.947 101.448 104.319 101.402 104.551C101.03 104.922 100.102 110.169 100.798 110.772C101.17 111.051 101.634 111.19 102.145 111.19C105.023 111.19 109.945 107.476 111.337 106.083C111.523 105.897 111.988 106.176 111.43 107.197C110.548 108.822 106.323 112.491 103.119 112.629C101.959 112.676 100.705 112.397 99.8233 111.423C99.1266 110.68 98.8018 109.101 98.8018 107.569Z" fill="#C49A6C"/>
<path d="M112.034 113.604C111.152 112.537 110.827 108.869 110.827 104.412C110.827 95.9617 111.987 84.6332 112.591 82.7294C112.637 82.4509 112.916 82.4045 113.38 82.5902C113.844 82.8222 114.216 83.194 114.216 83.426C113.938 84.3083 112.544 96.4258 112.544 105.108C112.544 109.473 112.916 112.955 113.938 113.651C115.655 114.626 118.162 110.448 119.462 108.312V105.897C119.462 98.1904 120.019 88.7188 121.459 83.2868C121.505 83.0083 122.062 82.7758 122.573 82.8222C123.13 82.8222 123.409 83.1471 123.362 83.426C121.97 89.1365 121.226 95.3115 121.226 106.826V108.915C121.226 112.537 122.109 120.94 123.455 122.89C123.873 123.447 123.548 123.633 123.455 123.772C122.898 123.726 122.713 123.494 122.248 122.983C120.716 121.265 119.88 115.276 119.602 111.097C118.719 113.14 117.419 115.276 115.191 115.276C113.705 115.276 112.544 114.394 112.034 113.604Z" fill="#C49A6C"/>
<path d="M125.056 99.8617C125.149 99.7224 125.474 98.7937 125.567 98.5617L125.66 97.8655C125.66 97.5866 126.171 97.4938 126.635 97.6794C127.239 97.8191 127.61 98.1904 127.517 98.4225C127.517 98.6081 127.517 98.933 127.378 99.2119C127.285 99.444 126.914 100.465 126.774 100.698C126.635 100.883 126.078 100.883 125.66 100.651C125.103 100.465 124.824 100.047 125.056 99.8617ZM123.664 107.569C123.664 106.13 123.942 104.69 124.453 103.901C124.499 103.669 124.964 103.622 125.52 103.762C126.031 103.947 126.31 104.319 126.264 104.551C125.892 104.922 124.964 110.169 125.66 110.772C126.031 111.051 126.496 111.19 127.007 111.19C129.885 111.19 134.806 107.476 136.199 106.083C136.385 105.897 136.849 106.176 136.292 107.197C135.41 108.822 131.185 112.491 127.981 112.629C126.82 112.676 125.567 112.397 124.685 111.423C123.988 110.68 123.664 109.101 123.664 107.569Z" fill="#C49A6C"/>
<path d="M143.164 106.733C142.699 106.594 142.049 106.501 141.353 106.501C139.032 106.501 135.967 107.383 135.457 109.519C135.317 110.076 135.596 110.587 136.292 110.633C138.521 110.355 141.539 108.451 143.164 106.733ZM134.064 109.101C134.064 108.08 134.574 107.058 135.735 106.269C136.989 105.433 138.567 105.015 140.192 105.015C141.492 105.015 142.792 105.294 143.953 105.804H143.999L144.788 104.737C145.067 104.226 146.646 105.248 146.321 105.804C146.088 106.501 145.671 107.337 145.578 108.219C145.531 109.008 145.764 109.937 146.599 110.169C148.967 110.633 152.96 108.265 154.631 106.408C155.421 105.619 156.117 106.78 153.563 109.333C152.403 110.494 149.199 111.979 147.249 111.515C145.717 111.144 144.556 110.262 143.953 108.59C142.653 109.751 139.589 112.119 137.128 112.119C136.524 112.119 135.967 111.979 135.457 111.655C134.528 110.958 134.064 110.076 134.064 109.101Z" fill="#C49A6C"/>
<path d="M153.842 109.844L154.306 105.201C154.306 104.876 154.771 104.83 155.235 105.015C155.606 105.247 156.024 105.665 155.978 105.944L155.885 107.522C157.464 106.362 160.807 104.69 163.407 104.969C164.288 105.062 165.124 105.897 165.124 106.594C165.124 107.383 164.614 109.148 165.217 110.029C165.682 110.401 166.192 110.54 166.796 110.54C169.674 110.54 173.714 106.873 175.199 106.13C175.385 106.037 175.571 107.058 174.874 107.94C173.76 109.38 170.742 111.84 167.492 111.84C166.146 111.84 164.66 111.283 163.824 110.076C163.36 109.38 163.221 108.59 163.221 107.754C163.221 107.244 163.267 106.733 163.36 106.176C159.924 106.548 156.396 108.776 155.513 110.726L155.467 111.794C155.513 112.397 153.889 111.98 153.842 111.237C153.796 110.865 153.749 110.401 153.842 109.844Z" fill="#C49A6C"/>
<path d="M176.221 94.3831C177.939 94.3367 179.889 94.2903 181.885 94.1975C181.978 93.7793 182.071 93.3616 182.21 92.9439C182.628 91.3186 182.953 89.3689 182.953 87.6971C182.953 85.5149 182.442 83.8436 181.003 83.9364C178.821 84.0761 177.706 86.8617 176.964 90.2043C176.639 91.5975 176.406 93.0367 176.221 94.3831ZM175.989 95.8688C175.757 97.819 175.664 99.7687 175.664 101.533C175.664 103.112 175.757 104.551 175.896 105.897C178.914 102.554 180.446 98.9797 181.467 95.6831L175.989 95.8688ZM180.028 113.79C178.403 113.79 177.01 113.001 175.989 111.376C174.55 109.008 174.085 105.247 174.085 101.44C174.085 99.5366 174.178 97.5869 174.363 95.8688L168.189 96.008C167.353 95.9152 168.049 94.5224 168.931 94.5224C170.464 94.5224 172.367 94.476 174.55 94.4295C174.782 92.3865 175.107 90.7617 175.339 89.8794C176.499 85.5617 178.125 82.8221 180.771 82.6828C183.696 82.4972 184.578 85.0972 184.578 88.0689C184.578 90.0186 184.206 92.108 183.742 93.6865L183.603 94.1047C186.389 93.965 189.314 93.7793 192.285 93.5473C195.349 93.2688 198.042 93.176 199.667 92.7583C199.992 92.665 200.271 92.665 200.178 93.0367C199.342 94.2903 195.164 94.6152 192.935 94.8472C189.36 95.219 186.203 95.4046 183.139 95.5903C181.885 99.3974 180.121 103.529 176.174 107.429C176.731 110.494 177.706 112.49 179.146 112.536C182.489 112.63 187.039 106.965 188.153 104.969C188.292 104.737 188.803 104.876 188.571 105.99C188.153 107.801 185.042 112.49 181.978 113.465C181.282 113.697 180.632 113.79 180.028 113.79Z" fill="#C49A6C"/>
<path d="M87.2804 131.405C87.2804 129.402 87.2804 127.378 87.2222 125.375H89.8606C89.8025 127.34 89.8025 129.363 89.8025 131.405V132.243C89.8025 134.253 89.8025 136.277 89.8606 138.28H87.2222C87.2804 136.316 87.2804 134.292 87.2804 132.25V131.405ZM88.8429 137.075L91.674 137.367V138.28H85.416V137.367L88.2184 137.075H88.8429ZM83.6969 126.412L84.844 125.375L84.2786 128.916H82.9177L83.0302 125.375H94.0597L94.1651 128.916H92.8117L92.2459 125.375L93.3855 126.412H83.6969Z" fill="#C49A6C"/>
<path d="M104.161 137.388L106.484 137.096H107.337L109.792 137.388V138.281H104.161V137.388ZM100.614 133.282H105.867L106.242 134.299H100.295L100.614 133.282ZM102.797 125.313H104.393L108.817 138.281H106.237L102.626 127.241L103.217 126.742L99.3766 138.281H98.341L102.797 125.313ZM97.1353 137.366L99.1094 137.075H99.4769L101.467 137.366V138.281H97.1353V137.366Z" fill="#C49A6C"/>
<path d="M121.19 135.433C121.19 134.29 120.56 133.776 119.132 133.186L118.35 132.851C116.208 131.937 114.868 130.794 114.868 128.725C114.868 126.437 116.755 125.047 119.468 125.047C120.815 125.047 122.003 125.434 122.897 126.057L122.758 128.686H121.277L120.768 125.748L122.177 126.347V127.32C121.181 126.479 120.454 126.113 119.437 126.113C118.127 126.113 117.108 126.843 117.108 128.102C117.108 129.228 117.812 129.855 119.097 130.385L119.934 130.741C122.459 131.798 123.466 132.898 123.466 134.798C123.466 137.093 121.626 138.608 118.624 138.608C117.166 138.608 115.631 138.212 114.622 137.584L114.739 134.775H116.234L116.74 137.849L115.354 137.34V136.406C116.575 137.175 117.308 137.542 118.595 137.542C120.208 137.542 121.19 136.715 121.19 135.433Z" fill="#C49A6C"/>
<path d="M132.511 131.405C132.511 129.402 132.511 127.378 132.453 125.375H135.091C135.033 127.34 135.033 129.363 135.033 131.405V132.243C135.033 134.253 135.033 136.277 135.091 138.28H132.453C132.511 136.316 132.511 134.292 132.511 132.25V131.405ZM134.074 137.075L136.905 137.367V138.28H130.647V137.367L133.449 137.075H134.074ZM128.928 126.412L130.075 125.375L129.509 128.916H128.148L128.261 125.375H139.29L139.396 128.916H138.042L137.477 125.375L138.616 126.412H128.928Z" fill="#C49A6C"/>
<path d="M151.089 131.41L151.381 129.448H152.384V133.844H151.381L151.089 131.785V131.41ZM154.756 134.875L154.62 138.281H147.357V137.251H153.953L152.807 138.281L153.396 134.875H154.756ZM151.697 132.168H147.357V131.144H151.697V132.168ZM152.418 125.375L153.564 126.412H147.357V125.375H154.231L154.367 128.78H153.006L152.418 125.375ZM146.096 131.405C146.096 129.402 146.096 127.379 146.038 125.375H148.677C148.619 127.339 148.619 129.363 148.619 131.405V132.095C148.619 134.253 148.619 136.277 148.677 138.281H146.038C146.096 136.315 146.096 134.293 146.096 132.25V131.405ZM147.357 137.075V138.281H144.427V137.366L147.106 137.075H147.357ZM144.427 126.289V125.375H147.357V126.58H147.106L144.427 126.289Z" fill="#C49A6C"/>
<path d="M79.2269 132.337H43.9287V131.262H79.2269V132.337Z" fill="#C49A6C"/>
<path d="M193.901 132.337H158.603V131.262H193.901V132.337Z" fill="#C49A6C"/>
<path d="M189.535 84.763H188.168V84.0298H191.792V84.763H190.411V88.8289H189.535V84.763Z" fill="#C49A6C"/>
<path d="M196.387 86.8704C196.358 86.2512 196.323 85.5034 196.33 84.8555H196.309C196.152 85.4392 195.953 86.0871 195.739 86.6923L195.034 88.7714H194.364L193.724 86.7209C193.539 86.1086 193.368 85.4533 193.24 84.8555H193.225C193.204 85.4823 193.176 86.2441 193.14 86.899L193.034 88.8286H192.214L192.535 84.0295H193.688L194.315 85.9591C194.486 86.5217 194.635 87.0912 194.756 87.6252H194.778C194.906 87.1053 195.07 86.5146 195.255 85.9521L195.917 84.0295H197.056L197.334 88.8286H196.48L196.387 86.8704Z" fill="#C49A6C"/>
<path d="M28.84 8.74179C32.5773 8.74179 36.106 9.38546 39.4251 10.6704C42.7441 11.9563 44.5978 13.5859 44.9869 15.5595C45.1664 16.4563 45.256 17.6832 45.256 19.2373C45.256 21.4505 45.106 23.1841 44.8073 24.44C44.7178 24.7096 44.5678 24.8441 44.3592 24.8441C44.2987 24.8441 44.2166 24.8291 44.1121 24.7991C44.0071 24.7696 43.9401 24.7541 43.9105 24.7541C41.7573 20.5382 39.3275 17.0995 36.6216 14.4382C33.9153 11.7773 31.2019 10.4313 28.4809 10.4013H28.3914C25.5209 10.4013 23.0241 11.7402 20.9009 14.4157C18.7777 17.092 17.1932 20.5682 16.1468 24.8441C15.0995 29.1205 14.5468 33.8896 14.4873 39.1518V39.69C14.4873 44.6841 15.0625 49.3412 16.2139 53.6616C17.3648 57.983 18.9123 61.4067 20.8559 63.933C22.7996 66.4603 24.9078 67.7228 27.1805 67.7228C28.6755 67.7228 29.9834 67.5142 31.1053 67.0951C32.2262 66.6764 33.146 66.0337 33.8637 65.1664C34.581 64.2996 35.1712 63.3798 35.6353 62.408C36.0985 61.4367 36.4346 60.2403 36.6441 58.8198C36.8532 57.3998 36.9953 56.0835 37.0703 54.8725C37.1448 53.6616 37.1823 52.2196 37.1823 50.5441V44.5791C35.2091 44.0409 33.9982 43.4432 33.5496 42.785C33.34 42.4864 33.2355 42.1723 33.2355 41.8432V41.5291H50.8623V41.8432C50.8623 42.9796 49.6064 43.8914 47.0951 44.5791C47.0951 48.7055 46.9226 53.0189 46.5794 57.5189C46.2353 62.0199 45.6441 64.7478 44.8073 65.7046C43.701 66.9605 41.9069 67.9178 39.4251 68.5751C36.9428 69.2333 33.0405 69.5619 27.7187 69.5619C23.5923 69.5619 19.8316 68.9046 16.4384 67.5883C13.0443 66.2728 10.1289 64.3521 7.69205 61.8248C5.25477 59.2985 3.36363 56.106 2.01818 52.2487C0.672727 48.3914 0 44.0259 0 39.1518C0 29.165 2.41431 21.5995 7.24341 16.4564C12.072 11.3136 19.2709 8.74179 28.84 8.74179Z" fill="#C49A6C"/>
<path d="M105.554 52.2177L118.292 17.183L131.031 52.2177H105.554ZM74.9992 46.8861H68.6939V10.3324H74.9992C81.1574 10.3324 86.167 18.5312 86.167 28.6095C86.167 38.6873 81.1574 46.8861 74.9992 46.8861ZM149.672 68.6285C149.28 68.0528 148.305 67.5236 146.747 67.0398C146.55 66.5208 145.92 64.8617 145.918 64.8561L125.699 9.26638C125.585 8.95275 125.283 8.74179 124.948 8.74179H116.361C116.104 8.74179 115.862 8.86602 115.711 9.07417C115.558 9.29122 115.521 9.56312 115.61 9.80737L117.443 14.8479L99.2493 64.8866C98.9464 65.7079 98.5742 66.3478 98.1326 66.8513C98.1232 66.8597 98.111 66.863 98.1021 66.8715C97.7885 67.1841 97.3717 67.3557 96.9273 67.3557C96.4819 67.3557 96.0642 67.1846 95.7501 66.8743C95.6194 66.7393 95.5054 66.5803 95.4211 66.412C95.4173 66.405 95.4136 66.3975 95.4098 66.3905L89.7959 55.4412C89.7898 55.4295 89.7837 55.4178 89.7772 55.4065C88.0431 52.1784 84.7231 49.6089 80.5592 48.1683C90.3547 46.5073 97.8133 38.3694 97.8133 28.6104C97.8133 17.6555 88.4144 8.74273 76.8613 8.74273H72.6688V8.74179H55.042V9.05588C55.042 9.38498 55.1465 9.69908 55.3561 9.9977C55.8047 10.6559 57.0156 11.2536 58.9888 11.7918C58.9888 11.7918 58.8097 65.5002 58.8097 66.8344C56.2979 67.5217 55.042 68.4335 55.042 69.5703V69.8844H72.6688V69.5703C72.6688 69.2408 72.5648 68.9271 72.3552 68.6285C71.9066 67.9703 70.6957 67.3726 68.722 66.8344L68.693 48.4777H72.6909C74.3453 48.4777 75.8543 49.3745 76.536 50.7626C76.5411 50.7724 76.5467 50.7827 76.5524 50.7931L83.9481 65.2457C84.4076 66.2555 85.0573 67.1902 85.8674 67.998C87.6526 69.7766 90.0247 70.7559 92.5478 70.7559C92.6622 70.7559 92.7742 70.7433 92.8881 70.7395C92.9017 70.7405 92.912 70.748 92.9261 70.748C93.1868 70.748 99.3257 70.687 100.775 65.361L104.976 53.8079H131.609L135.822 65.3943C135.824 65.4013 135.827 65.4083 135.83 65.4154C135.997 65.8781 136.09 66.2737 136.13 66.6174C136.13 66.6886 136.127 66.7632 136.127 66.8344C133.615 67.5217 132.359 68.4335 132.359 69.5703V69.8844H149.986V69.5703C149.986 69.2408 149.882 68.9271 149.672 68.6285Z" fill="#C49A6C"/>
<path d="M150.384 8.6486C150.384 9.38461 150.522 9.92936 150.798 10.2819C151.074 10.6349 151.373 10.8266 151.695 10.8571C152.017 10.8881 152.316 11.0179 152.592 11.2481C152.868 11.4783 153.006 11.8388 153.006 12.3291V67.0216C150.913 67.6844 149.854 68.5325 149.854 69.5704V69.8845H167.481V69.5704C167.481 69.2409 167.376 68.9272 167.167 68.6286C166.766 68.0407 165.753 67.5016 164.137 67.0094L164.048 40.0258H174.031C174.031 40.0567 174.085 40.2635 174.193 40.6465C174.3 41.0304 174.392 41.3445 174.469 41.5897C174.545 41.8358 174.668 42.1579 174.837 42.5559C175.005 42.9553 175.182 43.2769 175.366 43.5221C175.55 43.7682 175.78 43.9824 176.056 44.1662C176.332 44.3505 176.623 44.4423 176.93 44.4423H177.252V33.9065H176.93C176.562 33.9065 176.217 34.0298 175.895 34.2746C175.573 34.5207 175.304 34.8657 175.089 35.3097C174.875 35.755 174.698 36.138 174.561 36.4601C174.423 36.7822 174.216 37.4343 173.939 38.4155H164.048V10.3508H185.809C185.809 10.3817 185.862 10.581 185.97 10.949C186.078 11.317 186.177 11.632 186.269 11.8922C186.361 12.1529 186.5 12.4754 186.683 12.8584C186.868 13.2424 187.051 13.564 187.236 13.8241C187.419 14.0853 187.657 14.3075 187.949 14.4917C188.24 14.6755 188.539 14.7674 188.846 14.7674H189.122V8.6486H150.384Z" fill="#C49A6C"/>
<path d="M191.877 8.6486C191.877 9.38461 192.014 9.92936 192.291 10.2819C192.567 10.6349 192.866 10.8266 193.188 10.8571C193.51 10.8881 193.809 11.0179 194.085 11.2481C194.361 11.4783 194.499 11.8388 194.499 12.3291V67.0216C192.406 67.6844 191.346 68.5325 191.346 69.5704V69.8845H208.974V69.5704C208.974 69.2409 208.869 68.9272 208.66 68.6286C208.259 68.0407 207.246 67.5016 205.63 67.0094L205.541 40.0258H215.524C215.524 40.0567 215.578 40.2635 215.686 40.6465C215.792 41.0304 215.885 41.3445 215.962 41.5897C216.038 41.8358 216.16 42.1579 216.33 42.5559C216.497 42.9553 216.675 43.2769 216.858 43.5221C217.043 43.7682 217.273 43.9824 217.549 44.1662C217.825 44.3505 218.116 44.4423 218.423 44.4423H218.745V33.9065H218.423C218.055 33.9065 217.71 34.0298 217.388 34.2746C217.066 34.5207 216.797 34.8657 216.582 35.3097C216.368 35.755 216.191 36.138 216.054 36.4601C215.916 36.7822 215.709 37.4343 215.432 38.4155H205.541V10.3508H227.302C227.302 10.3817 227.355 10.581 227.463 10.949C227.571 11.317 227.67 11.632 227.762 11.8922C227.854 12.1529 227.992 12.4754 228.177 12.8584C228.36 13.2424 228.544 13.564 228.728 13.8241C228.913 14.0853 229.15 14.3075 229.442 14.4917C229.733 14.6755 230.032 14.7674 230.339 14.7674H230.615V8.6486H191.877Z" fill="#C49A6C"/>
<path d="M234.931 4.04196H235.448C236.036 4.04196 236.398 3.7138 236.398 3.21406C236.398 2.66979 236.036 2.40867 235.47 2.40867C235.193 2.40867 235.016 2.43117 234.931 2.4532V4.04196ZM234.066 1.82689C234.399 1.75985 234.881 1.71484 235.385 1.71484C236.072 1.71484 236.533 1.83439 236.858 2.11754C237.121 2.34913 237.269 2.69932 237.269 3.13202C237.269 3.78084 236.852 4.22057 236.398 4.38465V4.40716C236.745 4.54123 236.95 4.89189 237.064 5.37663C237.22 6.00295 237.348 6.58473 237.44 6.77881H236.547C236.476 6.62973 236.356 6.21953 236.228 5.59322C236.086 4.9369 235.866 4.72781 235.37 4.71281H234.931V6.77881H234.066V1.82689Z" fill="#C49A6C"/>
<path d="M235.753 0.360072C233.61 0.360072 231.866 2.104 231.866 4.24688C231.866 6.39023 233.61 8.1337 235.753 8.1337C237.897 8.1337 239.64 6.39023 239.64 4.24688C239.64 2.104 237.897 0.360072 235.753 0.360072ZM235.753 8.4942C233.412 8.4942 231.506 6.589 231.506 4.24688C231.506 1.90523 233.412 3.43323e-05 235.753 3.43323e-05C238.095 3.43323e-05 240 1.90523 240 4.24688C240 6.589 238.095 8.4942 235.753 8.4942Z" fill="#C49A6C"/>
</svg>
