<svg width="126" height="56" viewBox="0 0 126 56" fill="none" xmlns="http://www.w3.org/2000/svg">
<g clip-path="url(#clip0_386_348)">
<path d="M114.818 3.72047V3.70974C114.872 3.16293 114.444 2.6876 113.896 2.6876H111.236C110.894 2.6876 110.609 2.9485 110.577 3.29159C110.46 4.48171 110.296 5.66111 110.104 6.82979C108.622 15.8504 104.894 24.1205 99.5131 31.0361C98.6371 32.1618 97.7219 33.2555 96.7604 34.3062C86.9854 45.003 72.9584 51.722 57.3932 51.722C29.8343 51.7184 7.0829 30.6751 4.25188 3.75978C4.18779 3.14864 3.66787 2.6876 3.05538 2.6876H1.37101C0.559093 2.6876 -0.0747706 3.39166 0.00713315 4.20295C3.05894 33.2733 27.6301 56.0036 57.3896 56.0036C74.4719 56.0036 89.8449 48.5126 100.418 36.6328C103.038 37.8837 106.005 38.5127 109.131 38.334C118.152 37.8122 125.445 30.4892 125.964 21.4365C126.42 13.463 121.67 6.52601 114.815 3.72404L114.818 3.72047ZM109.438 34.0131C107.248 34.2276 105.15 33.9131 103.252 33.1911C108.747 25.9789 112.593 17.4408 114.224 8.145C118.914 10.5252 122.062 15.543 121.709 21.247C121.296 27.9089 116.058 33.3663 109.438 34.0131Z" fill="white"/>
<path d="M24.9739 35.0532C32.3559 43.4448 44.0432 48.8664 57.2012 48.8664C70.3592 48.8664 82.0465 43.4448 89.4286 35.0532H24.9739Z" fill="#CC9F75"/>
<path d="M104.227 16.2435C104.105 16.1935 103.977 16.2435 103.913 16.3507C103.069 17.8697 99.8465 21.8117 97.5247 21.8117C97.5069 21.8117 97.4855 21.8117 97.4677 21.8117C96.5597 21.7831 95.8581 20.5465 95.4308 18.2413C98.8708 14.8032 100.053 10.9934 100.918 8.20574C101.307 6.87981 101.531 5.3716 101.531 4.07427C101.531 2.4374 101.178 1.2723 100.484 0.618271C100.014 0.178676 99.3942 -0.021464 98.6393 0.0249972C96.8196 0.121493 95.5305 1.81911 94.5833 5.36446C94.2129 6.73685 93.6681 10.3751 93.6681 13.8311C93.6681 16.3043 93.9423 18.3271 94.48 19.846C93.6752 20.2463 92.931 20.4572 92.2188 20.4894C91.4211 20.4036 91.1576 19.7746 91.008 18.8775C91.008 18.2556 91.0436 17.7303 91.0757 17.5051C91.1326 17.0762 90.5308 16.6402 90.1142 16.5687C89.8542 16.5259 89.6726 16.6188 89.6299 16.8225C89.4127 17.7946 87.942 20.1891 86.7383 20.6645C86.4107 20.7931 86.133 20.7788 85.8908 20.6109C85.5169 20.3714 85.4385 19.7781 85.4385 19.3207C85.4385 18.4236 85.7555 17.5123 86.1579 17.2549C86.2754 17.1835 86.3466 17.0798 86.3609 16.9619C86.3787 16.8118 86.3074 16.6545 86.1508 16.4973C85.8481 16.1542 85.4314 15.9755 85.1145 16.0577C84.7513 16.1792 84.5269 16.5509 84.3738 16.8547C84.3275 16.9333 84.2883 17.0226 84.242 17.1263H84.1673C84.0497 17.1299 83.9322 17.1334 83.804 17.1334C82.9173 17.1334 82.0947 17.0905 81.3647 17.0048C80.8199 16.3686 80.04 15.9433 79.1498 15.8146C78.4091 15.7682 78.1384 16.2221 78.0067 16.6402C77.996 16.6402 77.9853 16.6474 77.9782 16.6509C77.9355 16.6652 77.9177 16.6581 77.8927 16.6688C77.298 16.8761 76.6927 17.7767 76.4612 18.781H76.4469C76.276 18.8203 76.1086 18.8561 75.9199 18.899C74.6201 19.1956 73.477 19.5029 72.423 19.8318C70.2187 18.2056 66.6505 17.7088 64.2825 17.38C64.0047 17.3407 63.7447 17.305 63.5062 17.2692C59.4644 16.7153 57.0927 15.5395 56.6512 13.8668C56.5158 13.3558 56.4518 12.8947 56.4518 12.4051C56.4518 9.69964 58.4424 6.89768 62.2064 4.30657C63.9192 3.13075 67.5444 1.37952 70.5107 1.37952C71.6894 1.37952 72.6509 1.66901 73.3667 2.22654C73.9079 2.74119 74.175 3.47742 74.175 4.47812C74.175 5.729 73.7121 7.34084 72.8325 9.14568C72.658 9.60315 72.8004 9.74968 72.9037 9.79614C73.21 9.93195 73.7869 9.4316 74.1608 8.69894C74.8338 7.34799 75.5246 5.77189 75.5246 4.34231C75.5246 3.23797 75.1258 2.30159 74.2996 1.47244C73.1067 0.500331 71.5185 -0.0107422 69.7024 -0.0107422C67.0565 -0.0107422 63.9192 1.05786 61.0953 2.92346C59.2828 4.15647 55.0701 7.50167 55.0701 11.9655C55.0701 12.6982 55.184 13.4165 55.4119 14.1027C56.3378 17.1084 60.5363 18.0055 63.6094 18.42L63.7127 18.4343C65.9241 18.7524 68.9189 19.1813 70.8704 20.3035C67.669 21.3721 63.3851 23.1448 60.6431 25.6322C59.4252 26.7116 58.7451 27.8302 58.6774 28.8702C58.6774 30.625 60.1232 31.6329 62.6444 31.6329C63.1821 31.6329 63.6771 31.5686 64.1828 31.4971C69.2643 30.6465 74.4065 27.6587 74.4065 23.588C74.4065 22.5229 74.1038 21.6187 73.4806 20.8396L76.276 20.0104L76.3793 19.9819C76.3793 20.0283 76.3864 20.0748 76.3935 20.1212C76.5716 21.1184 77.4618 22.2156 78.7652 22.2835C80.503 22.3871 81.8312 21.4043 82.1304 19.7495C82.2194 19.2957 82.2123 18.831 82.1019 18.395C82.6681 18.4165 83.2877 18.4057 83.9892 18.3593C83.9892 18.4093 83.9857 18.4594 83.9857 18.5058C83.9857 18.9633 84.0569 19.4207 84.1922 19.8282C84.5803 21.0326 85.7626 21.9439 86.9377 21.9439C88.2874 21.9439 89.2524 20.8825 89.9539 19.8961C90.5095 21.0183 91.5849 21.7081 92.8028 21.7081C93.5684 21.7474 94.3411 21.5794 95.0996 21.197C95.8403 22.3514 96.8801 22.9625 98.1051 22.9625C98.5894 22.9625 99.0773 22.8803 99.558 22.7195C101.762 22.0154 104.102 18.613 104.43 17.1763C104.583 16.4401 104.312 16.2721 104.223 16.2364L104.227 16.2435ZM100.114 3.8098C100.114 4.8927 99.9177 6.27939 99.5759 7.60889C98.8458 10.468 97.8452 13.7596 95.1887 16.8118C95.0961 15.8968 95.0498 14.9426 95.0498 14.042C95.0498 11.3651 95.3774 8.46663 95.9935 5.66467C96.6522 2.69115 97.5496 1.26515 98.8245 1.18295C99.088 1.16508 99.323 1.24014 99.5082 1.41883C99.907 1.7941 100.117 2.61967 100.117 3.8098H100.114ZM77.7895 19.5137C77.7966 19.4958 77.8001 19.4744 77.7966 19.4565C77.8785 18.6488 78.3663 17.8589 78.6833 17.6123C79.1248 17.8768 79.7124 18.0734 80.4745 18.2092C80.7273 18.8418 80.6383 19.6852 80.2394 20.3285C79.9083 20.8682 79.4204 21.1791 78.8649 21.2041C78.434 21.2327 77.996 21.0969 77.8073 19.9819C77.7823 19.8496 77.7788 19.7031 77.793 19.5137H77.7895ZM61.7719 26.565C63.9157 24.6637 67.3984 22.891 72.1203 21.2935C72.6473 21.9154 72.918 22.6337 72.918 23.42C72.715 27.2512 67.434 29.6672 63.9335 30.357C63.2711 30.4892 62.6658 30.5571 62.1352 30.5571C60.7286 30.5571 59.8917 30.0961 59.8917 29.3205C59.8917 28.5986 60.5434 27.6444 61.7755 26.565H61.7719Z" fill="#CC9F75"/>
<path d="M15.6225 23.6452C14.312 22.959 13.2865 21.9976 12.5458 20.7681C11.8015 19.5351 11.4312 18.1377 11.4312 16.5723C11.4312 15.007 11.8015 13.6095 12.5458 12.3765C13.29 11.1435 14.3156 10.1857 15.6225 9.49952C16.9329 8.81333 18.4037 8.47023 20.0346 8.47023C21.5338 8.47023 22.8728 8.7347 24.0515 9.26722C25.2266 9.79973 26.1988 10.5681 26.9644 11.5688L23.6775 14.5138C22.7196 13.3022 21.5979 12.6982 20.3017 12.6982C19.212 12.6982 18.3396 13.0484 17.6772 13.7489C17.0149 14.4494 16.6837 15.3929 16.6837 16.5723C16.6837 17.7517 17.0149 18.6953 17.6772 19.3958C18.3396 20.0962 19.2156 20.4465 20.3017 20.4465C21.5943 20.4465 22.7196 19.8425 23.6775 18.6309L26.9644 21.5759C26.1988 22.5801 25.2266 23.3485 24.0515 23.8775C22.8728 24.41 21.5374 24.6745 20.0346 24.6745C18.4037 24.6745 16.9294 24.3314 15.6225 23.6452Z" fill="white"/>
<path d="M30.094 22.7481C28.7693 21.4651 28.1069 19.6638 28.1069 17.3443V8.8169H33.3132V17.1871C33.3132 18.3236 33.5161 19.1527 33.9185 19.6674C34.3245 20.1856 34.9085 20.4429 35.6741 20.4429C36.4397 20.4429 37.0238 20.1856 37.4297 19.6674C37.8357 19.1527 38.0351 18.3236 38.0351 17.1871V8.8169H43.1523V17.3443C43.1523 19.6638 42.4899 21.4615 41.1652 22.7481C39.8405 24.0311 37.9959 24.6745 35.6278 24.6745C33.2597 24.6745 31.4116 24.0311 30.0904 22.7481H30.094Z" fill="white"/>
<path d="M56.7058 9.52812C57.7635 9.99987 58.5825 10.6789 59.1558 11.5653C59.7291 12.4516 60.0176 13.4845 60.0176 14.6639C60.0176 15.8433 59.7291 16.8797 59.1558 17.766C58.5825 18.6524 57.767 19.3314 56.7058 19.8032C55.6482 20.2749 54.4054 20.5108 52.9774 20.5108H50.7482V24.3206H45.542V8.8169H52.9774C54.4054 8.8169 55.6482 9.05278 56.7058 9.52454V9.52812ZM54.2345 16.0041C54.587 15.686 54.7651 15.2393 54.7651 14.6639C54.7651 14.0885 54.587 13.6417 54.2345 13.3236C53.8819 13.0056 53.3513 12.8483 52.6463 12.8483H50.7482V16.4794H52.6463C53.3513 16.4794 53.8819 16.3222 54.2345 16.0041Z" fill="white"/>
</g>
<defs>
<clipPath id="clip0_386_348">
<rect width="126" height="56" fill="white"/>
</clipPath>
</defs>
</svg>
