<svg width="127" height="56" viewBox="0 0 127 56" fill="none" xmlns="http://www.w3.org/2000/svg">
<g clip-path="url(#clip0_386_252)">
<path d="M115.234 3.72037V3.70965C115.288 3.16283 114.859 2.6875 114.309 2.6875H111.639C111.296 2.6875 111.01 2.9484 110.978 3.2915C110.86 4.48162 110.696 5.66101 110.503 6.82969C109.016 15.8503 105.274 24.1204 99.8737 31.036C98.9945 32.1617 98.076 33.2554 97.111 34.3061C87.3005 45.0029 73.2228 51.7219 57.6011 51.7219C29.9424 51.7183 7.10857 30.675 4.26729 3.75968C4.20296 3.14854 3.68117 2.6875 3.06645 2.6875H1.37598C0.561119 2.6875 -0.0750415 3.39157 0.007159 4.20285C3.07002 33.2732 27.7302 56.0035 57.5976 56.0035C74.7417 56.0035 90.1704 48.5125 100.781 36.6327C103.412 37.8836 106.389 38.5126 109.527 38.3339C118.58 37.8121 125.899 30.4891 126.421 21.4364C126.878 13.4629 122.111 6.52591 115.231 3.72394L115.234 3.72037ZM109.834 34.013C107.636 34.2275 105.531 33.913 103.626 33.191C109.141 25.9788 113.001 17.4407 114.638 8.1449C119.344 10.5251 122.504 15.5429 122.15 21.2469C121.735 27.9088 116.478 33.3662 109.834 34.013Z" fill="#004539"/>
<path d="M25.0645 35.0532C32.4732 43.4448 44.2029 48.8665 57.4086 48.8665C70.6143 48.8665 82.3439 43.4448 89.7527 35.0532H25.0645Z" fill="#CC9F75"/>
<path d="M104.605 16.2435C104.484 16.1935 104.355 16.2435 104.291 16.3507C103.444 17.8697 100.209 21.8117 97.879 21.8117C97.8611 21.8117 97.8397 21.8117 97.8218 21.8117C96.9104 21.7831 96.2064 20.5465 95.7775 18.2413C99.2299 14.8032 100.416 10.9934 101.285 8.20574C101.674 6.87981 101.9 5.3716 101.9 4.07427C101.9 2.4374 101.546 1.2723 100.849 0.618271C100.377 0.178676 99.7553 -0.021464 98.9976 0.0249972C97.1713 0.121493 95.8776 1.81911 94.9269 5.36446C94.5552 6.73685 94.0084 10.3751 94.0084 13.8311C94.0084 16.3043 94.2836 18.3271 94.8233 19.846C94.0156 20.2463 93.2686 20.4572 92.5538 20.4894C91.7533 20.4036 91.4888 19.7746 91.3387 18.8775C91.3387 18.2556 91.3744 17.7303 91.4066 17.5051C91.4638 17.0762 90.8598 16.6402 90.4416 16.5687C90.1807 16.5259 89.9984 16.6188 89.9556 16.8225C89.7375 17.7946 88.2615 20.1891 87.0535 20.6645C86.7247 20.7931 86.446 20.7788 86.2029 20.6109C85.8277 20.3714 85.749 19.7781 85.749 19.3207C85.749 18.4236 86.0671 17.5123 86.471 17.2549C86.5889 17.1835 86.6604 17.0798 86.6747 16.9619C86.6926 16.8118 86.6211 16.6545 86.4638 16.4973C86.16 16.1542 85.7419 15.9755 85.4238 16.0577C85.0593 16.1792 84.8341 16.5509 84.6804 16.8547C84.634 16.9333 84.5947 17.0226 84.5482 17.1263H84.4731C84.3552 17.1299 84.2373 17.1334 84.1086 17.1334C83.2187 17.1334 82.3931 17.0905 81.6605 17.0048C81.1136 16.3686 80.331 15.9433 79.4375 15.8146C78.6941 15.7682 78.4225 16.2221 78.2902 16.6402C78.2795 16.6402 78.2688 16.6474 78.2616 16.6509C78.2188 16.6652 78.2009 16.6581 78.1759 16.6688C77.579 16.8761 76.9715 17.7767 76.7391 18.781H76.7248C76.5533 18.8203 76.3853 18.8561 76.1959 18.899C74.8914 19.1956 73.7442 19.5029 72.6863 19.8318C70.474 18.2056 66.893 17.7088 64.5163 17.38C64.2375 17.3407 63.9766 17.305 63.7372 17.2692C59.6807 16.7153 57.3005 15.5395 56.8573 13.8668C56.7215 13.3558 56.6572 12.8947 56.6572 12.4051C56.6572 9.69964 58.655 6.89768 62.4327 4.30657C64.1517 3.13075 67.79 1.37952 70.7671 1.37952C71.9501 1.37952 72.915 1.66901 73.6334 2.22654C74.1766 2.74119 74.4447 3.47742 74.4447 4.47812C74.4447 5.729 73.9801 7.34084 73.0973 9.14568C72.9222 9.60315 73.0651 9.74968 73.1688 9.79614C73.4761 9.93195 74.0551 9.4316 74.4304 8.69894C75.1059 7.34799 75.7992 5.77189 75.7992 4.34231C75.7992 3.23797 75.3989 2.30159 74.5698 1.47244C73.3725 0.500331 71.7785 -0.0107422 69.9558 -0.0107422C67.3004 -0.0107422 64.1517 1.05786 61.3176 2.92346C59.4985 4.15647 55.2705 7.50167 55.2705 11.9655C55.2705 12.6982 55.3849 13.4165 55.6136 14.1027C56.5428 17.1084 60.7565 18.0055 63.8408 18.42L63.9445 18.4343C66.1639 18.7524 69.1695 19.1813 71.1281 20.3035C67.9151 21.3721 63.6157 23.1448 60.8637 25.6322C59.6414 26.7116 58.9588 27.8302 58.8909 28.8702C58.8909 30.625 60.3419 31.6329 62.8723 31.6329C63.4119 31.6329 63.9087 31.5686 64.4162 31.4971C69.5162 30.6465 74.677 27.6587 74.677 23.588C74.677 22.5229 74.3732 21.6187 73.7478 20.8396L76.5533 20.0104L76.6569 19.9819C76.6569 20.0283 76.6641 20.0748 76.6712 20.1212C76.8499 21.1184 77.7434 22.2156 79.0515 22.2835C80.7956 22.3871 82.1286 21.4043 82.4289 19.7495C82.5182 19.2957 82.5111 18.831 82.4003 18.395C82.9685 18.4165 83.5904 18.4057 84.2944 18.3593C84.2944 18.4093 84.2909 18.4594 84.2909 18.5058C84.2909 18.9633 84.3623 19.4207 84.4982 19.8282C84.8877 21.0326 86.0743 21.9439 87.2537 21.9439C88.6082 21.9439 89.5767 20.8825 90.2808 19.8961C90.8383 21.0183 91.9176 21.7081 93.1399 21.7081C93.9083 21.7474 94.6839 21.5794 95.4451 21.197C96.1885 22.3514 97.2321 22.9625 98.4615 22.9625C98.9476 22.9625 99.4372 22.8803 99.9197 22.7195C102.132 22.0154 104.48 18.613 104.809 17.1763C104.963 16.4401 104.691 16.2721 104.602 16.2364L104.605 16.2435ZM100.477 3.8098C100.477 4.8927 100.281 6.27939 99.9376 7.60889C99.2049 10.468 98.2006 13.7596 95.5345 16.8118C95.4416 15.8968 95.3951 14.9426 95.3951 14.042C95.3951 11.3651 95.7239 8.46663 96.3422 5.66467C97.0034 2.69115 97.904 1.26515 99.1835 1.18295C99.4479 1.16508 99.6838 1.24014 99.8697 1.41883C100.27 1.7941 100.481 2.61967 100.481 3.8098H100.477ZM78.0722 19.5137C78.0794 19.4958 78.0829 19.4744 78.0794 19.4565C78.1616 18.6488 78.6512 17.8589 78.9693 17.6123C79.4125 17.8768 80.0022 18.0734 80.767 18.2092C81.0207 18.8418 80.9314 19.6852 80.5311 20.3285C80.1987 20.8682 79.7091 21.1791 79.1516 21.2041C78.7191 21.2327 78.2795 21.0969 78.0901 19.9819C78.0651 19.8496 78.0615 19.7031 78.0758 19.5137H78.0722ZM61.9967 26.565C64.1482 24.6637 67.6435 22.891 72.3825 21.2935C72.9115 21.9154 73.1831 22.6337 73.1831 23.42C72.9794 27.2512 67.6792 29.6672 64.166 30.357C63.5013 30.4892 62.8937 30.5571 62.3612 30.5571C60.9495 30.5571 60.1096 30.0961 60.1096 29.3205C60.1096 28.5986 60.7636 27.6444 62.0002 26.565H61.9967Z" fill="#CC9F75"/>
<path d="M15.6792 23.6451C14.364 22.959 13.3347 21.9976 12.5913 20.7681C11.8443 19.5351 11.4727 18.1377 11.4727 16.5723C11.4727 15.0069 11.8443 13.6095 12.5913 12.3765C13.3383 11.1435 14.3675 10.1857 15.6792 9.49951C16.9944 8.81331 18.4704 8.47021 20.1073 8.47021C21.6119 8.47021 22.9557 8.73469 24.1387 9.2672C25.3181 9.79972 26.2938 10.5681 27.0622 11.5688L23.7634 14.5137C22.802 13.3022 21.6762 12.6982 20.3753 12.6982C19.2817 12.6982 18.4061 13.0484 17.7413 13.7489C17.0766 14.4494 16.7442 15.3929 16.7442 16.5723C16.7442 17.7517 17.0766 18.6952 17.7413 19.3957C18.4061 20.0962 19.2853 20.4465 20.3753 20.4465C21.6727 20.4465 22.802 19.8425 23.7634 18.6309L27.0622 21.5758C26.2938 22.5801 25.3181 23.3485 24.1387 23.8775C22.9557 24.41 21.6155 24.6744 20.1073 24.6744C18.4704 24.6744 16.9908 24.3313 15.6792 23.6451Z" fill="#004539"/>
<path d="M30.2032 22.7481C28.8737 21.4651 28.209 19.6638 28.209 17.3443V8.81689H33.4341V17.1871C33.4341 18.3236 33.6378 19.1527 34.0416 19.6674C34.4491 20.1856 35.0352 20.4429 35.8036 20.4429C36.572 20.4429 37.1581 20.1856 37.5655 19.6674C37.973 19.1527 38.1731 18.3236 38.1731 17.1871V8.81689H43.3089V17.3443C43.3089 19.6638 42.6441 21.4615 41.3146 22.7481C39.9851 24.0311 38.1338 24.6744 35.7571 24.6744C33.3805 24.6744 31.5256 24.0311 30.1997 22.7481H30.2032Z" fill="#004539"/>
<path d="M56.9113 9.52811C57.9728 9.99987 58.7948 10.6789 59.3702 11.5653C59.9456 12.4516 60.2351 13.4845 60.2351 14.6639C60.2351 15.8433 59.9456 16.8797 59.3702 17.766C58.7948 18.6524 57.9764 19.3314 56.9113 19.8032C55.8499 20.2749 54.6026 20.5108 53.1694 20.5108H50.9321V24.3206H45.707V8.81689H53.1694C54.6026 8.81689 55.8499 9.05277 56.9113 9.52453V9.52811ZM54.431 16.0041C54.7848 15.686 54.9635 15.2393 54.9635 14.6639C54.9635 14.0884 54.7848 13.6417 54.431 13.3236C54.0772 13.0055 53.5447 12.8483 52.837 12.8483H50.9321V16.4794H52.837C53.5447 16.4794 54.0772 16.3222 54.431 16.0041Z" fill="#004539"/>
</g>
<defs>
<clipPath id="clip0_386_252">
<rect width="126.457" height="56" fill="white"/>
</clipPath>
</defs>
</svg>
