<svg width="463" height="156" viewBox="0 0 463 156" fill="none" xmlns="http://www.w3.org/2000/svg">
<path d="M461.255 80.1319C460.654 79.8852 460.018 80.1319 459.7 80.6605C455.512 88.1486 439.522 107.583 428.001 107.583C427.913 107.583 427.807 107.583 427.719 107.583C423.213 107.442 419.732 101.345 417.612 89.981C434.68 73.0314 440.547 54.2494 444.84 40.5064C446.766 33.9697 447.879 26.5344 447.879 20.1387C447.879 12.0691 446.13 6.32528 442.685 3.10097C440.352 0.933815 437.278 -0.0528575 433.532 0.176192C424.503 0.651909 418.106 9.02101 413.406 26.4992C411.569 33.265 408.865 51.2013 408.865 68.239C408.865 80.4314 410.226 90.4039 412.894 97.892C408.901 99.8654 405.208 100.905 401.674 101.063C397.716 100.641 396.409 97.5396 395.666 93.1172C395.666 90.0515 395.843 87.4615 396.002 86.3515C396.285 84.2372 393.299 82.0876 391.231 81.7353C389.942 81.5238 389.04 81.9819 388.828 82.9862C387.751 87.7786 380.453 99.5835 374.481 101.927C372.855 102.561 371.477 102.491 370.276 101.663C368.42 100.482 368.032 97.5573 368.032 95.302C368.032 90.8796 369.604 86.3867 371.601 85.1181C372.184 84.7657 372.537 84.2548 372.608 83.6734C372.696 82.9334 372.343 82.1581 371.566 81.3829C370.064 79.6914 367.996 78.8105 366.424 79.2157C364.621 79.8148 363.508 81.6472 362.749 83.1448C362.519 83.5324 362.324 83.9729 362.095 84.4838H361.724C361.141 84.5015 360.558 84.5191 359.921 84.5191C355.522 84.5191 351.44 84.3077 347.818 83.8848C345.115 80.7486 341.245 78.6519 336.828 78.0176C333.152 77.7886 331.81 80.0262 331.156 82.0876C331.103 82.0876 331.05 82.1229 331.014 82.1405C330.802 82.211 330.714 82.1757 330.59 82.2286C327.64 83.2505 324.636 87.6905 323.487 92.6415H323.417C322.568 92.8353 321.738 93.0115 320.802 93.2229C314.352 94.6853 308.68 96.2006 303.45 97.8215C292.513 89.8048 274.808 87.3558 263.058 85.7348C261.68 85.541 260.39 85.3648 259.206 85.1886C239.152 82.4576 227.384 76.6609 225.193 68.4152C224.521 65.8956 224.203 63.6228 224.203 61.2089C224.203 47.8712 234.081 34.0578 252.757 21.2839C261.256 15.4872 279.243 6.85385 293.962 6.85385C299.81 6.85385 304.581 8.281 308.133 11.0296C310.818 13.5667 312.144 17.1963 312.144 22.1297C312.144 28.2964 309.847 36.2426 305.482 45.1403C304.616 47.3955 305.323 48.1179 305.836 48.347C307.355 49.0165 310.218 46.5498 312.073 42.9379C315.412 36.2778 318.84 28.5078 318.84 21.4601C318.84 16.0158 316.861 11.3996 312.762 7.31195C306.843 2.51954 298.962 0 289.951 0C276.823 0 261.256 5.26813 247.244 14.4653C238.25 20.5439 217.348 37.0355 217.348 59.0418C217.348 62.6537 217.913 66.1952 219.044 69.578C223.638 84.3957 244.47 88.8182 259.719 90.862L260.231 90.9325C271.204 92.5006 286.064 94.6149 295.746 100.147C279.862 105.415 258.606 114.155 245 126.417C238.957 131.738 235.582 137.253 235.247 142.38C235.247 151.031 242.42 156 254.93 156C257.598 156 260.054 155.683 262.563 155.33C287.778 151.137 313.292 136.407 313.292 116.339C313.292 111.089 311.79 106.631 308.698 102.79L322.568 98.7025L323.081 98.5615C323.081 98.7906 323.116 99.0196 323.152 99.2487C324.035 104.164 328.452 109.574 334.919 109.908C343.542 110.419 350.133 105.574 351.617 97.4163C352.059 95.1787 352.023 92.8882 351.475 90.7386C354.285 90.8444 357.359 90.7915 360.84 90.5624C360.84 90.8091 360.823 91.0558 360.823 91.2848C360.823 93.5401 361.176 95.7953 361.847 97.8039C363.773 103.742 369.64 108.234 375.47 108.234C382.167 108.234 386.956 103.002 390.436 98.1387C393.193 103.671 398.529 107.072 404.572 107.072C408.371 107.265 412.205 106.437 415.969 104.552C419.644 110.243 424.803 113.256 430.881 113.256C433.284 113.256 435.705 112.851 438.09 112.058C449.028 108.587 460.637 91.8134 462.262 84.7305C463.022 81.101 461.679 80.2729 461.237 80.0967L461.255 80.1319ZM440.847 18.8349C440.847 24.1735 439.875 31.0097 438.179 37.564C434.557 51.6594 429.592 67.8866 416.41 82.9334C415.951 78.4229 415.721 73.7185 415.721 69.2785C415.721 56.0818 417.347 41.7926 420.404 27.9792C423.672 13.3201 428.125 6.29004 434.451 5.8848C435.758 5.7967 436.924 6.1667 437.843 7.04766C439.822 8.89767 440.865 12.9677 440.865 18.8349H440.847ZM330.078 96.2534C330.113 96.1653 330.131 96.0596 330.113 95.9715C330.52 91.9896 332.94 88.0958 334.513 86.88C336.704 88.1839 339.619 89.1529 343.401 89.8224C344.655 92.941 344.213 97.0992 342.234 100.271C340.591 102.931 338.171 104.464 335.414 104.587C333.276 104.728 331.103 104.059 330.166 98.5615C330.043 97.9096 330.025 97.1872 330.096 96.2534H330.078ZM250.601 131.016C261.238 121.643 278.519 112.904 301.948 105.028C304.563 108.094 305.906 111.635 305.906 115.511C304.899 134.399 278.696 146.309 261.327 149.71C258.04 150.362 255.036 150.697 252.404 150.697C245.424 150.697 241.272 148.424 241.272 144.6C241.272 141.041 244.505 136.337 250.619 131.016H250.601Z" fill="#0E6E5D"/>
<path d="M20.8334 116.378C14.3196 112.98 9.22192 108.219 5.54024 102.13C1.84085 96.0229 0 89.1021 0 81.3493C0 73.5965 1.84085 66.6756 5.54024 60.569C9.23963 54.4623 14.3373 49.7186 20.8334 46.3201C27.3472 42.9217 34.6574 41.2224 42.7642 41.2224C50.2161 41.2224 56.8715 42.5322 62.7303 45.1696C68.5715 47.807 73.4037 51.6126 77.2093 56.5687L60.8718 71.1538C56.1104 65.1534 50.5347 62.162 44.0918 62.162C38.6754 62.162 34.3388 63.8967 31.0466 67.3659C27.7543 70.8352 26.1081 75.5081 26.1081 81.3493C26.1081 87.1904 27.7543 91.8633 31.0466 95.3326C34.3388 98.8019 38.6931 100.537 44.0918 100.537C50.517 100.537 56.1104 97.5452 60.8718 91.5447L77.2093 106.13C73.4037 111.104 68.5715 114.909 62.7303 117.529C56.8715 120.166 50.2338 121.476 42.7642 121.476C34.6574 121.476 27.3295 119.777 20.8334 116.378Z" fill="#151B1A"/>
<path d="M92.7655 111.935C86.181 105.581 82.8887 96.66 82.8887 85.1724V42.9392H108.767V84.3936C108.767 90.0223 109.776 94.1288 111.776 96.6777C113.794 99.2443 116.696 100.519 120.502 100.519C124.308 100.519 127.211 99.2443 129.228 96.6777C131.246 94.1288 132.237 90.0223 132.237 84.3936V42.9392H157.673V85.1724C157.673 96.66 154.381 105.563 147.796 111.935C141.212 118.29 132.043 121.476 120.272 121.476C108.501 121.476 99.3147 118.29 92.7478 111.935H92.7655Z" fill="#151B1A"/>
<path d="M225.041 46.4616C230.298 48.7981 234.369 52.1611 237.219 56.5508C240.068 60.9405 241.502 66.056 241.502 71.8971C241.502 77.7382 240.068 82.8714 237.219 87.2611C234.369 91.6508 230.315 95.0139 225.041 97.3503C219.784 99.6868 213.606 100.855 206.508 100.855H195.428V119.724H169.55V42.9392H206.508C213.606 42.9392 219.784 44.1074 225.041 46.4439V46.4616ZM212.757 78.5348C214.509 76.9594 215.394 74.7469 215.394 71.8971C215.394 69.0473 214.509 66.8348 212.757 65.2594C211.004 63.6841 208.367 62.9053 204.862 62.9053H195.428V80.8889H204.862C208.367 80.8889 211.004 80.1101 212.757 78.5348Z" fill="#151B1A"/>
</svg>
