<svg width="226" height="77" viewBox="0 0 226 77" fill="none" xmlns="http://www.w3.org/2000/svg">
<path d="M225.396 39.1572C225.103 39.0366 224.792 39.1572 224.637 39.4154C222.59 43.0746 214.776 52.5711 209.147 52.5711C209.104 52.5711 209.052 52.5711 209.009 52.5711C206.807 52.5023 205.106 49.5233 204.07 43.97C212.41 35.6874 215.277 26.5094 217.375 19.7938C218.316 16.5996 218.86 12.9663 218.86 9.84095C218.86 5.89768 218.005 3.0909 216.322 1.51532C215.182 0.456317 213.68 -0.0258293 211.849 0.0860975C207.437 0.318561 204.312 4.40819 202.015 12.9491C201.117 16.2552 199.796 25.0199 199.796 33.3456C199.796 39.3035 200.461 44.1766 201.764 47.8358C199.813 48.8001 198.009 49.3081 196.282 49.3855C194.348 49.1789 193.709 47.6636 193.346 45.5025C193.346 44.0044 193.432 42.7388 193.51 42.1964C193.648 41.1632 192.189 40.1128 191.179 39.9406C190.549 39.8373 190.108 40.0612 190.005 40.5519C189.478 42.8938 185.912 48.6623 182.994 49.8074C182.199 50.1174 181.526 50.0829 180.939 49.6783C180.032 49.1014 179.842 47.6722 179.842 46.5702C179.842 44.4091 180.61 42.2136 181.586 41.5937C181.871 41.4215 182.044 41.1718 182.078 40.8877C182.121 40.5261 181.949 40.1473 181.569 39.7684C180.835 38.9419 179.825 38.5114 179.056 38.7094C178.176 39.0022 177.632 39.8976 177.26 40.6294C177.148 40.8188 177.053 41.0341 176.941 41.2838H176.76C176.475 41.2924 176.19 41.301 175.879 41.301C173.729 41.301 171.734 41.1977 169.964 40.991C168.643 39.4585 166.752 38.4339 164.594 38.124C162.798 38.0121 162.142 39.1055 161.822 40.1128C161.796 40.1128 161.771 40.1301 161.753 40.1387C161.65 40.1731 161.606 40.1559 161.546 40.1817C160.104 40.6811 158.636 42.8507 158.075 45.2701H158.04C157.626 45.3648 157.22 45.4509 156.763 45.5542C153.611 46.2688 150.84 47.0093 148.284 47.8013C142.939 43.8839 134.288 42.6872 128.546 41.8951C127.872 41.8004 127.242 41.7142 126.664 41.6282C116.864 40.2936 111.113 37.461 110.043 33.4317C109.714 32.2005 109.559 31.0898 109.559 29.9103C109.559 23.3927 114.386 16.6427 123.512 10.4006C127.665 7.56797 136.455 3.34919 143.647 3.34919C146.505 3.34919 148.836 4.04658 150.572 5.38971C151.884 6.62951 152.532 8.40312 152.532 10.8138C152.532 13.8273 151.409 17.7103 149.277 22.0582C148.854 23.1602 149.199 23.5132 149.449 23.6252C150.192 23.9523 151.591 22.747 152.497 20.982C154.129 17.7275 155.804 13.9306 155.804 10.4867C155.804 7.82626 154.837 5.57051 152.834 3.57305C149.942 1.23119 146.091 0 141.687 0C135.272 0 127.665 2.57432 120.818 7.06861C116.423 10.039 106.209 18.0977 106.209 28.8513C106.209 30.6163 106.485 32.3468 107.038 33.9999C109.283 41.2407 119.463 43.4018 126.914 44.4005L127.164 44.4349C132.526 45.2012 139.788 46.2344 144.519 48.9378C136.757 51.5121 126.37 55.7826 119.722 61.775C116.769 64.3751 115.12 67.07 114.956 69.5754C114.956 73.8028 118.461 76.2308 124.574 76.2308C125.878 76.2308 127.078 76.0758 128.304 75.9036C140.625 73.8545 153.093 66.6567 153.093 56.8502C153.093 54.2845 152.359 52.1062 150.848 50.2293L157.626 48.2318L157.876 48.163C157.876 48.2749 157.894 48.3868 157.911 48.4987C158.343 50.9009 160.501 53.544 163.661 53.7076C167.875 53.9573 171.096 51.5896 171.821 47.6033C172.037 46.5099 172.019 45.3906 171.752 44.3402C173.125 44.3919 174.627 44.3661 176.328 44.2541C176.328 44.3747 176.319 44.4952 176.319 44.6071C176.319 45.7092 176.492 46.8112 176.82 47.7927C177.761 50.6942 180.628 52.8897 183.477 52.8897C186.749 52.8897 189.089 50.3326 190.79 47.9563C192.137 50.6598 194.745 52.3215 197.698 52.3215C199.554 52.4162 201.428 52.0115 203.267 51.0903C205.063 53.8712 207.584 55.3435 210.554 55.3435C211.728 55.3435 212.911 55.1455 214.077 54.758C219.422 53.0619 225.094 44.8654 225.889 41.4043C226.26 39.6307 225.604 39.226 225.388 39.1399L225.396 39.1572ZM215.424 9.20382C215.424 11.8126 214.949 15.1532 214.12 18.356C212.35 25.2438 209.924 33.1734 203.483 40.5261C203.258 38.322 203.146 36.0232 203.146 33.8535C203.146 27.4048 203.94 20.4223 205.434 13.6723C207.031 6.50897 209.207 3.07368 212.298 2.87566C212.937 2.83261 213.507 3.01341 213.956 3.4439C214.923 4.34793 215.432 6.33678 215.432 9.20382H215.424ZM161.296 47.0351C161.313 46.992 161.322 46.9404 161.313 46.8973C161.511 44.9515 162.694 43.0488 163.463 42.4547C164.533 43.0918 165.958 43.5653 167.806 43.8925C168.419 45.4164 168.203 47.4483 167.236 48.9981C166.433 50.2982 165.25 51.0472 163.903 51.1075C162.858 51.1764 161.796 50.8492 161.339 48.163C161.278 47.8444 161.27 47.4914 161.304 47.0351H161.296ZM122.459 64.0221C127.657 59.4417 136.101 55.1713 147.55 51.3227C148.828 52.8208 149.484 54.5514 149.484 56.4455C148.992 65.6752 136.187 71.4954 127.7 73.1571C126.094 73.4756 124.626 73.6392 123.339 73.6392C119.929 73.6392 117.9 72.5286 117.9 70.6602C117.9 68.9211 119.48 66.6223 122.467 64.0221H122.459Z" fill="#CC9F75"/>
<path d="M10.1804 56.8692C6.99742 55.2085 4.50637 52.8818 2.70728 49.9064C0.899546 46.9223 0 43.5404 0 39.7519C0 35.9634 0.899546 32.5815 2.70728 29.5974C4.51502 26.6134 7.00607 24.2953 10.1804 22.6346C13.3634 20.9739 16.9357 20.1436 20.8971 20.1436C24.5385 20.1436 27.7907 20.7836 30.6537 22.0724C33.508 23.3612 35.8693 25.2208 37.729 27.6426L29.7455 34.7698C27.4188 31.8376 24.6942 30.3759 21.5458 30.3759C18.8991 30.3759 16.78 31.2235 15.1712 32.9188C13.5624 34.6141 12.758 36.8976 12.758 39.7519C12.758 42.6062 13.5624 44.8897 15.1712 46.585C16.78 48.2803 18.9077 49.1279 21.5458 49.1279C24.6856 49.1279 27.4188 47.6662 29.7455 44.734L37.729 51.8611C35.8693 54.2916 33.508 56.1513 30.6537 57.4314C27.7907 58.7202 24.5472 59.3602 20.8971 59.3602C16.9357 59.3602 13.3548 58.5299 10.1804 56.8692Z" fill="#004539"/>
<path d="M45.3313 54.6983C42.1137 51.5931 40.5049 47.2338 40.5049 41.6203V20.9827H53.1504V41.2397C53.1504 43.9902 53.6434 45.9969 54.6208 47.2424C55.6069 48.4966 57.0254 49.1194 58.885 49.1194C60.7446 49.1194 62.1631 48.4966 63.1492 47.2424C64.1352 45.9969 64.6196 43.9902 64.6196 41.2397V20.9827H77.0489V41.6203C77.0489 47.2338 75.4401 51.5845 72.2225 54.6983C69.0049 57.8035 64.5245 59.3604 58.7726 59.3604C53.0207 59.3604 48.5316 57.8035 45.3226 54.6983H45.3313Z" fill="#004539"/>
<path d="M109.969 22.7039C112.538 23.8456 114.527 25.489 115.919 27.6341C117.312 29.7792 118.013 32.2789 118.013 35.1332C118.013 37.9875 117.312 40.4959 115.919 42.6409C114.527 44.786 112.546 46.4294 109.969 47.5711C107.4 48.7129 104.381 49.2837 100.913 49.2837H95.4981V58.5041H82.8525V20.9827H100.913C104.381 20.9827 107.4 21.5535 109.969 22.6953V22.7039ZM103.966 38.3767C104.822 37.6069 105.255 36.5258 105.255 35.1332C105.255 33.7406 104.822 32.6594 103.966 31.8896C103.11 31.1198 101.821 30.7393 100.108 30.7393H95.4981V39.5271H100.108C101.821 39.5271 103.11 39.1465 103.966 38.3767Z" fill="#004539"/>
</svg>
