<svg width="107" height="36" viewBox="0 0 107 36" fill="none" xmlns="http://www.w3.org/2000/svg">
<path d="M105.953 18.492C105.815 18.4351 105.668 18.492 105.595 18.614C104.631 20.342 100.952 24.8267 98.3008 24.8267C98.2805 24.8267 98.2561 24.8267 98.2357 24.8267C97.1989 24.7942 96.3979 23.3874 95.91 20.7649C99.8377 16.8534 101.188 12.5191 102.176 9.34764C102.619 7.83917 102.875 6.12333 102.875 4.64739C102.875 2.78518 102.472 1.45968 101.68 0.715609C101.143 0.215496 100.435 -0.0121979 99.5734 0.0406596C97.4957 0.15044 96.0238 2.08177 94.9423 6.1152C94.5194 7.67653 93.8974 11.8157 93.8974 15.7475C93.8974 18.5611 94.2104 20.8624 94.8244 22.5905C93.9055 23.0459 93.0557 23.2857 92.2425 23.3223C91.3317 23.2248 91.0309 22.5091 90.8601 21.4886C90.8601 20.7811 90.9007 20.1834 90.9373 19.9273C91.0024 19.4393 90.3152 18.9433 89.8395 18.862C89.5427 18.8132 89.3353 18.9189 89.2866 19.1507C89.0385 20.2566 87.3593 22.9808 85.985 23.5216C85.6109 23.6679 85.2938 23.6517 85.0173 23.4606C84.5904 23.1882 84.5009 22.5132 84.5009 21.9928C84.5009 20.9722 84.8628 19.9354 85.3222 19.6426C85.4564 19.5613 85.5377 19.4434 85.554 19.3092C85.5743 19.1385 85.493 18.9596 85.3141 18.7807C84.9685 18.3903 84.4928 18.187 84.1309 18.2806C83.7162 18.4188 83.46 18.8417 83.2852 19.1873C83.2323 19.2767 83.1876 19.3784 83.1348 19.4963H83.0494C82.9152 19.5003 82.781 19.5044 82.6346 19.5044C81.6222 19.5044 80.683 19.4556 79.8495 19.358C79.2274 18.6343 78.3369 18.1504 77.3204 18.0041C76.4747 17.9512 76.1657 18.4676 76.0153 18.9433C76.0031 18.9433 75.9909 18.9514 75.9827 18.9555C75.9339 18.9718 75.9136 18.9636 75.8852 18.9758C75.2061 19.2117 74.5149 20.2363 74.2506 21.3788H74.2344C74.0392 21.4235 73.8481 21.4642 73.6326 21.513C72.1485 21.8505 70.8434 22.2001 69.6398 22.5742C67.123 20.7242 63.0489 20.159 60.3451 19.785C60.0279 19.7402 59.7311 19.6996 59.4587 19.6589C54.8438 19.0287 52.1359 17.691 51.6317 15.7881C51.4772 15.2067 51.404 14.6822 51.404 14.1251C51.404 11.0472 53.6769 7.8595 57.9746 4.91168C59.9303 3.57398 64.0695 1.58166 67.4564 1.58166C68.8022 1.58166 69.9001 1.911 70.7173 2.54529C71.3353 3.13079 71.6403 3.96838 71.6403 5.10684C71.6403 6.52993 71.1117 8.36368 70.1074 10.417C69.9082 10.9374 70.0708 11.1041 70.1887 11.157C70.5384 11.3115 71.1971 10.7423 71.624 9.90874C72.3925 8.37181 73.1813 6.57872 73.1813 4.95234C73.1813 3.69596 72.7259 2.63068 71.7826 1.68737C70.4205 0.581432 68.6071 0 66.5334 0C63.5124 0 59.9303 1.21572 56.706 3.33815C54.6365 4.74091 49.8264 8.54665 49.8264 13.625C49.8264 14.4585 49.9565 15.2758 50.2168 16.0565C51.2739 19.4759 56.0677 20.4965 59.5766 20.9681L59.6945 20.9844C62.2195 21.3463 65.6389 21.8342 67.8671 23.1109C64.2118 24.3266 59.3204 26.3433 56.1896 29.1733C54.7991 30.4012 54.0225 31.6738 53.9452 32.857C53.9452 34.8534 55.596 36 58.4747 36C59.0887 36 59.6538 35.9268 60.2312 35.8455C66.0333 34.8778 71.9046 31.4787 71.9046 26.8475C71.9046 25.6359 71.559 24.6072 70.8474 23.7208L74.0392 22.7775L74.1571 22.745C74.1571 22.7978 74.1652 22.8507 74.1734 22.9035C74.3767 24.0379 75.3932 25.2862 76.8813 25.3635C78.8655 25.4814 80.3821 24.3632 80.7236 22.4807C80.8253 21.9643 80.8172 21.4357 80.6911 20.9397C81.3376 20.9641 82.0451 20.9519 82.8461 20.899C82.8461 20.956 82.842 21.0129 82.842 21.0657C82.842 21.5862 82.9233 22.1066 83.0778 22.5701C83.521 23.9404 84.8709 24.9772 86.2127 24.9772C87.7537 24.9772 88.8556 23.7696 89.6566 22.6474C90.2908 23.9241 91.5188 24.7088 92.9093 24.7088C93.7835 24.7536 94.6658 24.5625 95.5319 24.1274C96.3776 25.4407 97.5648 26.136 98.9635 26.136C99.5165 26.136 100.074 26.0425 100.622 25.8595C103.139 25.0585 105.811 21.1877 106.185 19.5532C106.36 18.7156 106.05 18.5245 105.949 18.4838L105.953 18.492ZM101.257 4.34651C101.257 5.5785 101.033 7.15609 100.643 8.66862C99.8093 11.9214 98.6667 15.6661 95.6335 19.1385C95.5278 18.0976 95.4749 17.012 95.4749 15.9874C95.4749 12.9419 95.849 9.64445 96.5524 6.45674C97.3046 3.07387 98.3292 1.45155 99.7849 1.35803C100.086 1.3377 100.354 1.42309 100.566 1.62638C101.021 2.05331 101.261 2.99255 101.261 4.34651H101.257ZM75.7672 22.2123C75.7754 22.192 75.7794 22.1676 75.7754 22.1473C75.8689 21.2284 76.4259 20.3298 76.7878 20.0492C77.292 20.3501 77.9629 20.5738 78.833 20.7283C79.1217 21.4479 79.02 22.4075 78.5646 23.1394C78.1865 23.7533 77.6294 24.1071 76.9952 24.1355C76.5032 24.1681 76.0031 24.0136 75.7876 22.745C75.7591 22.5945 75.755 22.4278 75.7713 22.2123H75.7672ZM57.4786 30.2345C59.9263 28.0714 63.9028 26.0547 69.2942 24.2372C69.896 24.9447 70.205 25.7619 70.205 26.6564C69.9732 31.0151 63.9434 33.7637 59.9466 34.5485C59.1903 34.6989 58.4991 34.7761 57.8933 34.7761C56.2872 34.7761 55.3317 34.2516 55.3317 33.3693C55.3317 32.548 56.0758 31.4624 57.4826 30.2345H57.4786Z" fill="#CC9F75"/>
<path d="M4.78563 26.9125C3.28936 26.1318 2.11837 25.0381 1.27265 23.6394C0.42286 22.2366 0 20.6469 0 18.866C0 17.0851 0.42286 15.4953 1.27265 14.0925C2.12243 12.6898 3.29343 11.6001 4.78563 10.8194C6.28191 10.0388 7.96115 9.64844 9.82336 9.64844C11.5351 9.64844 13.0639 9.94932 14.4098 10.5551C15.7515 11.161 16.8615 12.0352 17.7357 13.1736L13.9828 16.524C12.8891 15.1456 11.6083 14.4585 10.1283 14.4585C8.88412 14.4585 7.88796 14.8569 7.13169 15.6539C6.37542 16.4508 5.99729 17.5242 5.99729 18.866C5.99729 20.2077 6.37542 21.2811 7.13169 22.0781C7.88796 22.875 8.88819 23.2735 10.1283 23.2735C11.6042 23.2735 12.8891 22.5863 13.9828 21.208L17.7357 24.5583C16.8615 25.7008 15.7515 26.575 14.4098 27.1768C13.0639 27.7826 11.5392 28.0835 9.82336 28.0835C7.96115 28.0835 6.27784 27.6932 4.78563 26.9125Z" fill="white"/>
<path d="M21.3091 25.8921C19.7966 24.4324 19.0403 22.3832 19.0403 19.7443V10.043H24.9847V19.5654C24.9847 20.8584 25.2165 21.8017 25.6759 22.3872C26.1394 22.9768 26.8063 23.2695 27.6804 23.2695C28.5546 23.2695 29.2214 22.9768 29.685 22.3872C30.1485 21.8017 30.3762 20.8584 30.3762 19.5654V10.043H36.219V19.7443C36.219 22.3832 35.4627 24.4283 33.9502 25.8921C32.4376 27.3518 30.3315 28.0836 27.6276 28.0836C24.9237 28.0836 22.8135 27.3518 21.305 25.8921H21.3091Z" fill="white"/>
<path d="M51.694 10.8521C52.9016 11.3888 53.8368 12.1613 54.4914 13.1697C55.146 14.178 55.4754 15.3531 55.4754 16.6949C55.4754 18.0366 55.146 19.2158 54.4914 20.2241C53.8368 21.2325 52.9057 22.005 51.694 22.5417C50.4865 23.0784 49.0674 23.3468 47.437 23.3468H44.8917V27.6811H38.9473V10.043H47.437C49.0674 10.043 50.4865 10.3113 51.694 10.848V10.8521ZM48.8723 18.2196C49.2748 17.8577 49.4781 17.3495 49.4781 16.6949C49.4781 16.0403 49.2748 15.532 48.8723 15.1701C48.4697 14.8083 47.8639 14.6294 47.0589 14.6294H44.8917V18.7604H47.0589C47.8639 18.7604 48.4697 18.5815 48.8723 18.2196Z" fill="white"/>
</svg>
